<svg xmlns="http://www.w3.org/2000/svg" width="1024" height="1024"><path d="M898.14 1000.5h-1.33l-.02-.28.28-.06v-2.8l-.28-.02v-.3h1.98l.1.86h-.23l-.17-.52h-1.05v1.23h.82v.33h-.8v1.2l.75.1-.03.27zM900.75 1000.33c-.17.13-.4.2-.7.2-.35 0-.62-.12-.8-.36-.2-.2-.28-.5-.28-.83 0-.36.1-.65.28-.87.2-.24.45-.37.77-.37.2 0 .38.06.52.18.15.12.22.27.22.46 0 .2-.04.34-.13.45-.1.1-.2.18-.36.23-.23.1-.55.15-.96.15.05.2.12.35.25.47.12.13.3.2.52.2.23 0 .43-.07.6-.2l.08.28zm-1.37-1.05c.3 0 .5-.02.64-.06.13-.05.23-.1.3-.17s.1-.16.1-.3c0-.1-.03-.2-.12-.28-.08-.05-.17-.08-.3-.08-.1 0-.2 0-.3.06-.08.05-.15.12-.2.2-.13.17-.2.38-.2.62h.1zM901.6 1000.4c-.1.06-.15.1-.17.1h-.08v-3.3l-.3.02-.05-.26.53-.1.13.15v1.3c.15-.13.32-.2.5-.2.2 0 .36.04.48.1.12.07.22.15.3.26.16.22.24.5.24.83 0 .33-.08.6-.25.84-.18.25-.44.38-.78.38-.2 0-.4-.04-.54-.13zm.06-.32c.14.1.28.16.44.16.16 0 .3-.03.38-.08.1-.06.16-.13.22-.22.1-.16.15-.37.15-.63 0-.4-.1-.67-.35-.83-.1-.05-.2-.08-.3-.08-.1 0-.2 0-.3.06s-.2.1-.23.18v1.44zM904.84 1000.5l-.05-.3.26-.27c.1-.1.23-.2.35-.33l.38-.38c.12-.13.23-.27.32-.4.23-.33.33-.62.33-.88 0-.2-.07-.36-.22-.46-.1-.08-.23-.12-.37-.12-.2 0-.35.03-.46.1l-.04.05-.2.4-.37-.23c.13-.2.28-.37.45-.47.18-.1.37-.16.56-.16s.36.02.48.07c.12.06.22.13.3.2.16.18.25.4.25.66 0 .24-.12.52-.32.84-.14.22-.35.5-.64.8l-.53.52-.05.06h1.2l.18-.54h.25l-.1.86h-1.94zM907.38 998.78c0-.48.1-.88.27-1.2.2-.36.5-.54.9-.54.37 0 .66.18.87.55.18.3.27.7.27 1.18s-.1.88-.28 1.2c-.2.36-.5.54-.88.54-.4 0-.68-.18-.9-.55-.17-.3-.26-.7-.26-1.2zm.35 0c0 .62.14 1.05.42 1.28.1.08.23.12.4.12.26 0 .47-.15.62-.45.1-.25.17-.57.17-.95 0-.62-.14-1.04-.42-1.28-.1-.08-.23-.13-.38-.13-.28 0-.5.16-.64.46-.12.25-.17.56-.17.95zM910.15 1000.25l.53-.1v-2.66l-.52.1-.04-.3.8-.26.1.05v3.06l.47.06v.28h-1.3l-.05-.25zM912.45 998.55c-.13 0-.3 0-.46.04v-1.4l.14-.15h1.65v.34h-1.5v.85h.3c.38 0 .7.1.9.3.25.2.37.46.37.8 0 .35-.12.63-.35.85-.23.2-.52.32-.86.32-.37 0-.68-.1-.93-.3l.18-.28c.1.1.22.15.36.2.13.04.26.06.4.06.12 0 .23-.02.34-.06s.2-.1.27-.17c.16-.17.24-.37.24-.6 0-.3-.1-.53-.33-.66-.18-.1-.42-.15-.72-.15zM896.77 1006.23l.3-.07v-2.8l-.3-.02v-.3h.82c.5 0 .86.12 1.1.35.18.17.27.4.27.7 0 .36-.13.64-.4.83-.22.17-.52.25-.88.25h-.3v.97l.7.1v.25h-1.3l-.02-.27zm.9-1.4c.37 0 .62-.07.77-.22.12-.1.18-.28.18-.5 0-.24-.1-.42-.26-.54-.16-.12-.37-.17-.64-.17h-.3v1.44h.25zM899.25 1005.3c0-.16.02-.3.07-.46.04-.15.1-.27.2-.4.17-.23.42-.35.74-.35.34 0 .6.12.77.36.16.23.24.5.24.84 0 .33-.08.6-.24.84-.18.25-.43.38-.77.38-.32 0-.58-.13-.77-.38-.17-.22-.25-.5-.25-.85zm.48-.57c-.05.1-.1.2-.1.32-.04.1-.05.22-.05.32s0 .2.04.3c.02.1.06.2.12.28.12.2.3.28.52.28.24 0 .42-.1.54-.3.1-.15.15-.36.15-.6 0-.4-.13-.7-.37-.86-.1-.06-.2-.1-.32-.1-.13 0-.24.05-.32.1-.1.08-.16.16-.2.26zM903.32 1004.27l.6 1.85.4-1.75h-.23l-.06-.24.54-.03.07.13-.55 2.27h-.43l-.5-1.64-.5 1.64h-.48l-.43-2.13h-.2l-.05-.24.55-.03.4 2.05.58-1.87h.27zM906.8 1006.33c-.17.13-.4.2-.7.2-.35 0-.62-.12-.8-.36-.2-.2-.28-.5-.28-.83 0-.36.1-.65.28-.87.2-.24.45-.37.77-.37.2 0 .38.06.52.18s.2.27.2.46c0 .2-.03.34-.12.45-.1.1-.2.18-.36.23-.23.1-.55.15-.96.15.04.2.1.35.23.47.12.13.3.2.52.2.23 0 .43-.07.6-.2l.08.28zm-1.37-1.05c.3 0 .5-.02.64-.06.13-.05.23-.1.3-.17s.1-.16.1-.3c0-.1-.03-.2-.12-.28-.08-.05-.17-.08-.3-.08-.1 0-.2 0-.3.06-.08.05-.15.12-.2.2-.13.17-.2.38-.2.62h.08zM907.82 1004.3c.15-.14.32-.2.5-.2.23 0 .43.1.6.32l-.4.2-.16-.24c-.12 0-.23.04-.34.13-.13.1-.2.26-.2.44v1.24l.7.1v.22h-1.26l-.05-.22.3-.07v-1.77h-.27l-.04-.24.48-.1.14.2zM909.33 1006.5h-.24l-.02-.07 1.7-3.4h.25v.08l-1.7 3.4zM913.54 1003.95c0 .36-.15.62-.44.78.18.08.3.16.37.24.15.16.22.36.22.6 0 .3-.1.54-.32.7-.2.15-.46.23-.8.23h-1.13l-.03-.28.28-.06v-2.8l-.28-.02v-.3h1.04c.34 0 .6.1.8.27.2.17.28.4.28.65zm-.36.02c0-.27-.13-.45-.4-.54-.1-.03-.2-.04-.34-.04h-.4v1.22h.48c.22 0 .4-.07.5-.2.1-.12.16-.26.16-.44zm-1.13.96v1.23h.64c.2 0 .38-.07.5-.2.1-.1.14-.26.14-.44 0-.17-.07-.3-.2-.42-.15-.1-.33-.17-.53-.17h-.56zM915.47 1006.3c-.16.15-.36.22-.6.22-.2 0-.38-.06-.52-.17-.14-.13-.22-.28-.22-.47 0-.18.05-.33.14-.43s.2-.18.33-.24c.22-.08.5-.13.84-.14v-.32c0-.1-.04-.2-.12-.25-.08-.08-.2-.1-.32-.1-.16 0-.27 0-.34.06l-.08.26-.4-.07c.04-.18.15-.3.3-.4.15-.1.3-.14.5-.14.27 0 .47.07.6.2.1.13.18.3.18.52v1.3c0 .08.03.13.1.13.04 0 .07 0 .1-.02l.07.2c-.07.06-.16.1-.27.1-.16 0-.25-.08-.3-.23zm-.9-.72c-.08.07-.1.16-.1.27s.03.2.1.28c.1.07.2.1.3.1.26 0 .45-.1.57-.27v-.62c-.42 0-.7.08-.88.24zM917.53 1004.4c-.22 0-.4.06-.57.2v1.6l.3.08v.22h-.86l-.03-.2.27-.1v-1.8l-.27.02-.05-.23.5-.1.12.2c.2-.13.4-.2.62-.2.23 0 .4.07.52.2.13.1.2.3.2.53v1.38l.3.08v.22h-.9l-.02-.22.3-.07v-1.33c0-.32-.15-.48-.43-.48zM920.05 1004.4c-.22 0-.4.06-.57.2v1.6l.3.08v.22h-.86l-.03-.2.26-.1v-1.8l-.27.02-.05-.23.5-.1.1.2c.2-.13.4-.2.63-.2.23 0 .4.07.53.2.13.1.2.3.2.53v1.38l.3.08v.22h-.9l-.02-.22.3-.07v-1.33c0-.32-.14-.48-.43-.48zM923.2 1006.33c-.17.13-.4.2-.7.2-.34 0-.6-.12-.8-.36-.2-.2-.28-.5-.28-.83 0-.36.1-.65.28-.87.2-.24.45-.37.77-.37.2 0 .4.06.53.18.15.12.22.27.22.46 0 .2-.05.34-.14.45-.1.1-.2.18-.35.23-.24.1-.56.15-.96.15.03.2.1.35.23.47.12.13.3.2.53.2.23 0 .42-.07.6-.2l.08.28zm-1.36-1.05c.3 0 .5-.02.64-.06.12-.05.22-.1.3-.17s.1-.16.1-.3c0-.1-.04-.2-.13-.28-.07-.05-.17-.08-.28-.08-.12 0-.22 0-.3.06-.1.05-.16.12-.22.2-.13.17-.2.38-.2.62h.1zM924.23 1004.3c.15-.14.3-.2.5-.2.23 0 .42.1.58.32l-.36.2-.17-.24c-.12 0-.24.04-.34.13-.14.1-.2.26-.2.44v1.24l.7.1v.22h-1.27l-.05-.22.3-.07v-1.77h-.26l-.04-.24.5-.1.13.2zM927.36 1004.25v1.96l.3.08v.22h-.87l-.06-.2.3-.1v-1.78l-.27.02-.04-.26.5-.08.13.14zm-.5-1.1c0-.08.02-.14.07-.2.05-.04.1-.07.18-.07s.15.03.2.08c.05.05.08.1.08.18 0 .08-.03.14-.08.2s-.1.07-.2.07-.12-.02-.17-.07-.08-.1-.08-.2zM929.67 1006.35c-.15.1-.37.17-.65.17-.33 0-.6-.12-.78-.36-.16-.22-.24-.5-.24-.82 0-.56.2-.94.56-1.13.13-.06.28-.1.44-.1.3 0 .53.07.7.2l-.22.34-.3-.24H929c-.24 0-.42.1-.54.3-.1.16-.13.38-.13.64 0 .4.13.68.38.82.1.05.24.08.4.08.17 0 .33-.05.48-.14l.1.25zM929.98 1005.3c0-.16.03-.3.07-.46.04-.15.1-.27.2-.4.18-.23.43-.35.74-.35.33 0 .6.12.76.36.17.23.25.5.25.84 0 .33-.07.6-.24.84-.17.25-.43.38-.77.38-.33 0-.58-.13-.77-.38-.16-.22-.25-.5-.25-.85zm.48-.57c-.05.1-.1.2-.1.32-.03.1-.04.22-.04.32s0 .2.03.3c.03.1.07.2.13.28.12.2.3.28.52.28.23 0 .4-.1.53-.3.1-.15.15-.36.15-.6 0-.4-.12-.7-.36-.86-.1-.06-.2-.1-.33-.1-.14 0-.24.05-.33.1-.1.08-.16.16-.2.26zM933.6 1004.4c-.24 0-.43.06-.6.2v1.6l.3.08v.22h-.85l-.03-.2.27-.1v-1.8l-.28.02-.04-.23.5-.1.1.2c.2-.13.4-.2.63-.2.24 0 .42.07.54.2.12.1.2.3.2.53v1.38l.3.08v.22h-.9l-.03-.22.3-.07v-1.33c0-.32-.13-.48-.4-.48zM935.75 1004.1c.1 0 .2 0 .3.04s.16.07.22.12c.13.1.22.2.28.32l-.4.14-.1-.25c-.07-.06-.17-.1-.3-.1-.1 0-.18.03-.24.07-.1.08-.17.17-.17.28 0 .1.04.2.12.25.1.06.24.12.45.2s.36.15.46.26c.1.1.14.24.14.38 0 .15-.02.26-.07.34-.05.1-.1.16-.18.2-.15.12-.33.18-.54.18-.2 0-.36-.05-.52-.16-.1-.08-.2-.2-.28-.32l.4-.15.1.25c.1.06.2.08.34.08.1 0 .2-.02.25-.06.1-.1.17-.18.17-.3 0-.1-.04-.2-.12-.27-.06-.05-.2-.12-.43-.2-.4-.13-.62-.34-.62-.65 0-.2.08-.36.23-.48.14-.12.3-.17.52-.17zM938.56 1006.4l-.18.1h-.08v-3.3l-.3.02-.04-.26.52-.1.14.15v1.3c.15-.13.32-.2.5-.2.2 0 .36.04.48.1.12.07.22.15.3.26.16.22.24.5.24.83 0 .33-.08.6-.25.84-.2.25-.46.38-.8.38-.2 0-.38-.04-.54-.13zm.06-.32c.13.1.28.16.44.16.16 0 .28-.03.37-.08.1-.06.17-.13.23-.22.1-.16.15-.37.15-.63 0-.4-.1-.67-.34-.83-.1-.05-.2-.08-.3-.08-.1 0-.22 0-.32.06s-.17.1-.22.18v1.44zM940.54 1007.42c.1.1.2.15.3.15.1 0 .2-.1.3-.3l.05-.17.12-.36-.77-2.36h-.17l-.04-.25.48-.03.7 2.13.65-1.85H942l-.05-.25.47-.03.1.18-.53 1.4-.45 1.2-.2.55-.13.2c-.1.16-.24.24-.4.24-.14 0-.28-.06-.44-.18l.16-.28zM944.02 1006c.14.12.28.2.44.2.07 0 .13-.03.18-.08.05-.04.08-.12.08-.23v-2.53l-.37-.04.03-.28h.97v.3l-.3.02v2.4c0 .32-.07.53-.24.65-.1.07-.2.1-.33.1-.24 0-.46-.08-.64-.24l.2-.3zM945.7 1005.3c0-.16.02-.3.07-.46.04-.15.1-.27.2-.4.18-.23.43-.35.74-.35.35 0 .6.12.78.36.17.23.25.5.25.84 0 .33-.08.6-.25.84-.17.25-.43.38-.77.38-.3 0-.57-.13-.75-.38-.16-.22-.25-.5-.25-.85zm.48-.57c-.05.1-.1.2-.1.32-.03.1-.04.22-.04.32s0 .2.03.3c.03.1.07.2.13.28.12.2.3.28.52.28.23 0 .4-.1.53-.3.1-.15.15-.36.15-.6 0-.4-.12-.7-.36-.86-.1-.06-.2-.1-.33-.1-.12 0-.22.05-.3.1-.1.08-.17.16-.22.26zM949.3 1004.4c-.22 0-.4.06-.57.2v1.6l.3.08v.22h-.86l-.03-.2.27-.1v-1.8l-.26.02-.04-.23.5-.1.1.2c.2-.13.4-.2.63-.2.23 0 .4.07.53.2.12.1.18.3.18.53v1.38l.3.08v.22h-.9v-.22l.3-.07v-1.33c0-.32-.15-.48-.44-.48zM953.02 1005.17h-.45v.98l.4.1v.25h-1l-.03-.27.28-.07v-2.8l-.28-.02v-.3h.87c.63 0 1.04.2 1.24.58.06.14.1.28.1.44 0 .16-.02.3-.06.4-.04.1-.1.2-.17.28-.12.16-.3.28-.52.35l.5 1.08.33.07v.25h-.58l-.6-1.33zm-.18-.33c.63 0 .94-.25.94-.74 0-.24-.08-.42-.25-.55-.14-.1-.34-.16-.6-.16h-.36v1.44h.27zM955.18 1004.25v1.96l.3.08v.22h-.87l-.03-.2.3-.1v-1.78l-.27.02-.05-.26.5-.08.13.14zm-.5-1.1c0-.08.02-.14.07-.2.05-.04.12-.07.2-.07s.12.03.18.08c.05.05.07.1.07.18 0 .08-.02.14-.07.2s-.12.07-.2.07-.13-.02-.18-.07-.07-.1-.07-.2zM957.5 1006.35c-.15.1-.37.17-.65.17-.34 0-.6-.12-.78-.36-.16-.22-.25-.5-.25-.82 0-.56.2-.94.57-1.13.12-.06.26-.1.43-.1.3 0 .53.07.7.2l-.23.34-.3-.24h-.17c-.25 0-.43.1-.54.3-.1.16-.15.38-.15.64 0 .4.13.68.4.82.08.05.2.08.38.08.17 0 .33-.05.48-.14l.1.25zM958.96 1004.4c-.22 0-.4.06-.57.2v1.6l.27.07v.23h-.86v-.22l.28-.07v-3h-.28l-.04-.25.5-.1.13.16v1.3c.17-.13.38-.2.6-.2.22 0 .4.07.52.2.12.1.2.3.2.53v1.38l.3.08v.22h-.9l-.03-.22.3-.07v-1.34c0-.3-.15-.47-.44-.47zM961.66 1006.3c-.16.15-.35.22-.6.22-.2 0-.37-.06-.5-.17-.16-.13-.23-.28-.23-.47 0-.18.04-.33.14-.43s.2-.18.33-.24c.22-.08.5-.13.84-.14v-.32c0-.1-.04-.2-.12-.25-.08-.08-.2-.1-.32-.1-.16 0-.28 0-.35.06l-.08.26-.4-.07c.05-.18.16-.3.3-.4.15-.1.32-.14.5-.14.27 0 .48.07.6.2s.18.3.18.52v1.3c0 .08.04.13.12.13.03 0 .06 0 .1-.02l.06.2c-.07.06-.16.1-.28.1-.15 0-.25-.08-.3-.23zm-.9-.72c-.06.07-.1.16-.1.27s.04.2.12.28c.08.07.18.1.3.1.25 0 .44-.1.56-.27v-.62c-.42 0-.7.08-.88.24zM963.16 1004.3c.15-.14.32-.2.5-.2.23 0 .43.1.6.32l-.4.2-.16-.24c-.12 0-.23.04-.34.13-.13.1-.2.26-.2.44v1.24l.7.1v.22h-1.27l-.05-.22.3-.07v-1.77h-.28l-.04-.24.5-.1.13.2zM965.5 1004.1c.18 0 .34.04.5.1v-1l-.3.02-.05-.26.52-.1.14.15v3.1c0 .1.05.15.12.15.03 0 .07 0 .1-.03l.06.2c-.06.07-.16.1-.3.1-.13 0-.2-.07-.26-.2-.15.13-.32.2-.52.2s-.35-.03-.48-.1-.22-.17-.3-.28c-.17-.22-.25-.5-.25-.8 0-.36.1-.65.26-.87.2-.25.45-.37.78-.37zm.5.47c-.1-.12-.26-.18-.47-.18-.24 0-.43.1-.57.28-.1.16-.16.37-.16.62 0 .4.13.7.37.85.1.06.2.1.3.1.24 0 .4-.1.53-.27v-1.4zM967.74 1004.1c.1 0 .2 0 .3.04s.16.07.23.12c.13.1.22.2.27.32l-.4.14-.1-.25c-.07-.06-.17-.1-.3-.1-.1 0-.18.03-.24.07-.1.08-.17.17-.17.28 0 .1.04.2.12.25.1.06.23.12.44.2s.36.15.45.26c.1.1.14.24.14.38 0 .15-.03.26-.08.34-.04.1-.1.16-.18.2-.15.12-.32.18-.53.18-.2 0-.37-.05-.53-.16-.1-.08-.2-.2-.27-.32l.4-.15.1.25c.1.06.2.08.34.08.1 0 .18-.02.24-.06.12-.1.18-.18.18-.3 0-.1-.03-.2-.1-.27-.08-.05-.22-.12-.44-.2-.4-.13-.62-.34-.62-.65 0-.2.07-.36.22-.48.14-.12.32-.17.52-.17zM972.4 1006.36c-.1.1-.28.16-.5.16-.26 0-.47-.1-.64-.27-.18-.2-.27-.44-.27-.76 0-.4.1-.66.33-.84.17-.13.37-.2.6-.2.14 0 .3.03.42.1l.2-.1.12.02v1.6c0 .08.06.12.16.12.14 0 .26-.1.37-.28.1-.18.16-.37.16-.58 0-.2-.03-.4-.1-.57s-.15-.32-.27-.44c-.25-.26-.58-.4-1-.4-.43 0-.8.15-1.1.44-.28.3-.43.64-.43 1.05 0 .2.04.4.1.6.1.18.2.35.32.5.13.13.28.25.46.34.17.08.37.13.6.13.2 0 .4-.05.6-.12l.05.02-.07.32c-.2.05-.4.08-.65.08-.23 0-.45-.05-.67-.15-.2-.1-.4-.25-.56-.42-.16-.17-.28-.37-.37-.6-.1-.23-.14-.47-.14-.72s.05-.47.15-.7c.1-.2.24-.4.42-.56.17-.16.37-.28.6-.38.23-.1.47-.13.72-.13.5 0 .9.16 1.2.48.32.32.48.74.48 1.25 0 .3-.08.56-.23.8-.17.24-.38.37-.65.37-.2 0-.33-.05-.4-.16zm-.07-1.5c-.1-.05-.24-.1-.38-.1-.26 0-.44.13-.55.35-.05.1-.07.22-.07.37s.02.28.06.37c.03.1.08.17.14.22.1.1.24.14.4.14.14 0 .28-.04.4-.12v-1.2zM975.2 1007.45c.08.1.17.14.25.14s.13-.04.14-.1l.02-.22v-2.86l-.35.03-.04-.26.57-.1.13.14v3.1c0 .14-.02.26-.07.33-.1.13-.23.2-.4.2s-.32-.06-.43-.18l.16-.25zm.22-4.3c0-.08.03-.14.08-.2.05-.04.1-.07.18-.07.08 0 .14.03.2.08.04.05.07.1.07.18 0 .08-.03.14-.08.2-.05.04-.1.07-.2.07-.06 0-.12-.02-.17-.07s-.08-.1-.08-.2zM976.5 1005.3c0-.16.03-.3.07-.46.05-.15.1-.27.2-.4.18-.23.43-.35.75-.35.34 0 .6.12.77.36.15.23.23.5.23.84 0 .33-.08.6-.24.84-.2.25-.44.38-.78.38-.32 0-.58-.13-.77-.38-.16-.22-.24-.5-.24-.85zm.5-.57c-.07.1-.1.2-.13.32-.02.1-.03.22-.03.32s0 .2.04.3c.02.1.06.2.12.28.12.2.3.28.52.28.24 0 .4-.1.53-.3.1-.15.15-.36.15-.6 0-.4-.12-.7-.36-.86-.1-.06-.2-.1-.32-.1-.13 0-.24.05-.33.1-.1.08-.16.16-.2.26zM980.1 1004.4c-.2 0-.4.06-.57.2v1.6l.3.08v.22h-.86l-.03-.2.28-.1v-1.8l-.27.02-.05-.23.5-.1.12.2c.2-.13.4-.2.62-.2.23 0 .4.07.52.2.13.1.2.3.2.53v1.38l.3.08v.22h-.9l-.03-.22.3-.07v-1.33c0-.32-.14-.48-.42-.48zM981.58 1005.25v-.28l.04-.04h1.2s.02 0 .02.04v.28h-1.26zM983.95 1004.3c.15-.14.32-.2.5-.2.23 0 .43.1.6.32l-.4.2-.16-.24c-.13 0-.24.04-.35.13-.14.1-.2.26-.2.44v1.24l.7.1v.22h-1.27l-.04-.22.3-.07v-1.77h-.28l-.04-.24.5-.1.13.2zM985.6 1006.5c-.08 0-.14 0-.2-.06-.04-.05-.06-.1-.06-.18 0-.07.02-.14.07-.2s.12-.06.2-.06c.07 0 .13.02.18.07s.08.1.08.2c0 .06-.03.12-.08.17-.05.05-.1.07-.18.07zM986.7 1005.7c-.23-.16-.35-.4-.35-.72 0-.26.08-.47.25-.63.17-.16.38-.24.63-.24s.46.07.6.2l.47-.22.1.02.04.34-.43.05c.1.13.14.28.14.44 0 .16-.02.3-.06.4s-.1.2-.2.27c-.16.18-.38.26-.64.26-.1 0-.18 0-.26-.03l-.1.15v.1l.2.06.2.05.14.03c.25.07.43.13.52.2.1.07.17.15.2.23s.08.2.08.33-.03.24-.1.34-.13.2-.22.27c-.2.15-.42.22-.7.22-.27 0-.5-.07-.68-.2-.2-.15-.3-.35-.3-.6 0-.23.1-.42.3-.57.05-.05.1-.08.16-.1-.1-.08-.16-.17-.16-.28 0-.1.06-.23.18-.37zm-.02.97c-.1.1-.14.2-.14.3s.02.2.07.27.1.1.17.15c.14.07.27.1.4.1s.22 0 .3-.03.17-.05.23-.1c.16-.08.23-.2.23-.36 0-.16-.1-.28-.3-.37l-.3-.1-.33-.06c-.12.04-.23.1-.32.2zm.56-2.28c-.18 0-.32.05-.4.16-.1.1-.16.25-.16.42 0 .17.05.3.15.43.1.12.23.18.4.18s.33-.06.43-.17c.1-.1.15-.25.15-.42 0-.17-.04-.3-.14-.42-.1-.1-.24-.17-.42-.17zM989.3 1004.25v1.96l.3.08v.22h-.88l-.04-.2.3-.1v-1.78l-.27.02-.04-.26.5-.08.13.14zm-.5-1.1c0-.08 0-.14.06-.2.05-.04.1-.07.2-.07s.12.03.18.08c.05.05.07.1.07.18 0 .08 0 .14-.06.2s-.12.07-.2.07-.13-.02-.18-.07-.07-.1-.07-.2zM990.23 1005.8v-1.42h-.4l-.06-.22.04-.06h.45v-.84l.28-.06.03.05v.85h.53v.28h-.55v1.6c0 .1.02.17.06.2.05.03.1.05.2.05.08 0 .18-.04.3-.13l.08.26-.17.1s-.18.06-.33.06-.25-.05-.33-.15c-.07-.1-.1-.24-.1-.4v-.17zM992.58 1004.4c-.22 0-.4.06-.57.2v1.6l.3.07v.23h-.87l-.03-.22.3-.07v-3h-.28l-.05-.25.5-.1.14.16v1.3c.2-.13.4-.2.62-.2.22 0 .4.07.52.2.12.1.2.3.2.53v1.38l.3.08v.22h-.9l-.03-.22.3-.07v-1.34c0-.3-.13-.47-.42-.47zM995.46 1006.32c-.17.13-.36.2-.6.2-.33 0-.55-.14-.67-.42-.05-.1-.07-.23-.07-.38v-1.3h-.27l-.05-.24.52-.1.12.16v1.47c0 .23.06.38.2.46.06.05.16.07.27.07s.23-.02.33-.07.17-.1.2-.16v-1.57h-.26l-.04-.24.5-.1.12.14v1.9c0 .07.04.1.12.1h.1l.03.17c-.02.03-.06.05-.1.08-.06.03-.12.04-.2.04-.12 0-.2-.07-.24-.2zM996.8 1006.4l-.18.1h-.08v-3.3l-.3.02-.04-.26.52-.1.14.15v1.3c.15-.13.32-.2.5-.2.2 0 .35.04.48.1.12.07.22.15.3.26.16.22.24.5.24.83 0 .33-.08.6-.25.84-.2.25-.45.38-.8.38-.2 0-.38-.04-.53-.13zm.06-.32c.13.1.28.16.44.16.15 0 .28-.03.37-.08.1-.06.17-.13.22-.22.1-.16.15-.37.15-.63 0-.4-.12-.67-.36-.83-.1-.05-.2-.08-.3-.08-.1 0-.22 0-.32.06s-.18.1-.22.18v1.44zM999.06 1006.5c-.07 0-.13 0-.18-.06-.05-.05-.08-.1-.08-.18 0-.07.03-.14.08-.2s.1-.06.18-.06c.07 0 .14.02.2.07s.06.1.06.2c0 .06-.02.12-.07.17-.06.05-.12.07-.2.07zM1000.38 1004.25v1.96l.3.08v.22h-.87l-.04-.2.3-.1v-1.78l-.27.02-.05-.26.5-.08.13.14zm-.5-1.1c0-.08.02-.14.07-.2.05-.04.1-.07.18-.07s.14.03.2.08c.04.05.07.1.07.18 0 .08-.03.14-.08.2s-.1.07-.2.07-.12-.02-.17-.07-.08-.1-.08-.2zM1001 1005.3c0-.16.04-.3.08-.46.04-.15.1-.27.2-.4.18-.23.43-.35.74-.35.34 0 .6.12.77.36.16.23.24.5.24.84 0 .33-.08.6-.25.84-.18.25-.44.38-.78.38-.32 0-.57-.13-.76-.38-.16-.22-.25-.5-.25-.85zm.5-.57c-.06.1-.1.2-.12.32-.02.1-.04.22-.04.32s.02.2.04.3c.03.1.07.2.12.28.13.2.3.28.52.28.24 0 .42-.1.54-.3.1-.15.15-.36.15-.6 0-.4-.1-.7-.36-.86-.08-.06-.2-.1-.32-.1-.13 0-.23.05-.32.1-.1.08-.16.16-.2.26zM897.06 1011.6l.14.48c.14.07.27.1.4.1s.24 0 .32-.03c.1-.03.16-.06.23-.1.15-.12.23-.27.23-.45 0-.13-.03-.24-.1-.34-.05-.1-.16-.2-.3-.26l-.44-.2c-.14-.06-.27-.13-.38-.2-.1-.1-.2-.18-.28-.3s-.1-.22-.1-.37.02-.28.07-.4c.06-.1.13-.18.23-.25.2-.16.43-.23.7-.23.24 0 .5.05.78.16l.06.78h-.27l-.2-.53c-.12-.05-.23-.07-.34-.07-.1 0-.2 0-.28.03l-.2.1c-.13.1-.2.2-.2.33s.03.23.1.3c.04.08.1.15.2.2.07.06.16.1.27.14l.32.15c.13.06.24.12.33.2.1.08.18.16.23.24.1.14.15.3.15.47s-.03.32-.1.44-.12.22-.22.3c-.2.17-.44.25-.73.25-.33 0-.6-.05-.84-.16l-.06-.77h.3zM899.16 1011.3c0-.16.03-.3.07-.46.04-.15.1-.27.2-.4.18-.23.43-.35.74-.35.34 0 .6.12.78.36.16.23.24.5.24.84 0 .33-.1.6-.26.84-.17.25-.43.38-.77.38-.32 0-.57-.13-.76-.38-.15-.22-.24-.5-.24-.85zm.48-.57c-.05.1-.1.2-.1.32-.03.1-.04.22-.04.32s0 .2.03.3c.03.1.07.2.13.28.12.2.3.28.52.28.23 0 .4-.1.53-.3.1-.15.16-.36.16-.6 0-.4-.12-.7-.36-.86-.1-.06-.2-.1-.33-.1-.12 0-.23.05-.32.1-.1.08-.16.16-.2.26zM903.3 1012.35c-.16.1-.38.17-.66.17-.34 0-.6-.12-.78-.36-.16-.22-.24-.5-.24-.82 0-.56.18-.94.56-1.13.13-.06.27-.1.44-.1.3 0 .53.07.7.2l-.22.34-.3-.24h-.18c-.25 0-.43.1-.54.3-.1.16-.14.38-.14.64 0 .4.13.68.4.82.08.05.2.08.38.08.17 0 .33-.05.48-.14l.08.25zM904.23 1010.25v1.96l.3.08v.22h-.87l-.05-.2.3-.1v-1.78l-.26.02-.04-.26.5-.08.13.14zm-.5-1.1c0-.08.02-.14.07-.2.05-.04.1-.07.18-.07s.14.03.2.08c.04.05.07.1.07.18 0 .08-.03.14-.08.2s-.12.07-.2.07-.13-.02-.18-.07-.08-.1-.08-.2zM906.2 1012.3c-.15.15-.35.22-.58.22-.2 0-.38-.06-.52-.17-.15-.13-.23-.28-.23-.47 0-.18.05-.33.14-.43s.22-.18.35-.24c.2-.08.5-.13.83-.14v-.32c0-.1-.04-.2-.12-.25-.07-.08-.18-.1-.3-.1-.17 0-.3 0-.36.06l-.08.26-.4-.07c.05-.18.15-.3.3-.4.15-.1.3-.14.5-.14.27 0 .47.07.6.2.12.13.18.3.18.52v1.3c0 .08.04.13.12.13.02 0 .06 0 .1-.02l.06.2c-.07.06-.17.1-.28.1-.15 0-.25-.08-.3-.23zm-.9-.72c-.06.07-.1.16-.1.27s.05.2.13.28c.08.07.18.1.3.1.25 0 .44-.1.56-.27v-.62c-.43 0-.72.08-.9.24zM907.67 1009v3.2l.3.08v.22h-.9l-.03-.22.32-.07v-3h-.28l-.04-.25.5-.1.13.16zM909.87 1012.18v-2.8l-.28-.04v-.3h.87l.02.3-.28.03v2.8l.28.03v.3h-.88l-.02-.28.27-.04zM912.6 1012.35c-.15.1-.36.17-.65.17-.33 0-.6-.12-.78-.36-.16-.22-.24-.5-.24-.82 0-.56.2-.94.56-1.13.12-.06.27-.1.44-.1.3 0 .52.07.7.2l-.23.34-.28-.24h-.2c-.23 0-.4.1-.53.3-.1.16-.14.38-.14.64 0 .4.13.68.38.82.1.05.23.08.4.08.16 0 .32-.05.47-.14l.1.25zM912.9 1011.3c0-.16.04-.3.08-.46.04-.15.1-.27.2-.4.18-.23.43-.35.74-.35.34 0 .6.12.78.36.16.23.24.5.24.84 0 .33-.08.6-.25.84-.18.25-.44.38-.78.38-.32 0-.57-.13-.76-.38-.16-.22-.25-.5-.25-.85zm.5-.57c-.06.1-.1.2-.12.32-.02.1-.03.22-.03.32s0 .2.03.3c.03.1.07.2.13.28.13.2.3.28.53.28.23 0 .4-.1.53-.3.1-.15.15-.36.15-.6 0-.4-.1-.7-.35-.86-.1-.06-.2-.1-.33-.1-.12 0-.23.05-.32.1-.1.08-.16.16-.2.26zM916.52 1010.4c-.23 0-.42.06-.58.2v1.6l.3.08v.22h-.86l-.03-.2.28-.1v-1.8l-.27.02-.05-.23.52-.1.1.2c.2-.13.4-.2.62-.2.23 0 .4.07.53.2.12.1.2.3.2.53v1.38l.3.08v.22h-.9l-.03-.22.3-.07v-1.33c0-.32-.14-.48-.42-.48zM918.68 1010.1c.1 0 .2 0 .3.04s.16.07.22.12c.13.1.22.2.28.32l-.4.14-.1-.25c-.07-.06-.17-.1-.3-.1-.1 0-.18.03-.24.07-.12.08-.18.17-.18.28 0 .1.04.2.12.25.1.06.24.12.45.2s.36.15.46.26c.08.1.13.24.13.38 0 .15-.02.26-.07.34-.05.1-.1.16-.18.2-.15.12-.33.18-.54.18-.2 0-.37-.05-.53-.16-.1-.08-.2-.2-.26-.32l.4-.15.1.25c.1.06.2.08.34.08.1 0 .18-.02.24-.06.12-.1.18-.18.18-.3 0-.1-.04-.2-.1-.27-.08-.05-.23-.12-.44-.2-.42-.13-.62-.34-.62-.65 0-.2.07-.36.22-.48.14-.12.3-.17.52-.17zM921.5 1012.4c-.1.06-.17.1-.2.1h-.07v-3.3l-.3.02-.04-.26.5-.1.15.15v1.3c.15-.13.32-.2.5-.2.2 0 .36.04.48.1.12.07.22.15.3.26.16.22.24.5.24.83 0 .33-.08.6-.25.84-.2.25-.45.38-.8.38-.2 0-.38-.04-.53-.13zm.05-.32c.13.1.28.16.44.16.15 0 .27-.03.36-.08.1-.06.17-.13.22-.22.1-.16.16-.37.16-.63 0-.4-.12-.67-.35-.83-.1-.05-.2-.08-.3-.08-.12 0-.23 0-.33.06s-.17.1-.22.18v1.44zM923.47 1013.42c.1.1.2.15.3.15.1 0 .2-.1.3-.3l.06-.17.13-.36-.78-2.36h-.17l-.02-.25.47-.03.7 2.13.65-1.85h-.18l-.04-.25.48-.03.08.18-.5 1.4-.45 1.2-.23.55-.12.2c-.1.16-.24.24-.4.24-.13 0-.28-.06-.43-.18l.15-.28zM927.5 1010.3c.15-.14.32-.2.5-.2.23 0 .43.1.6.32l-.4.2-.16-.24c-.12 0-.23.04-.34.13-.13.1-.2.26-.2.44v1.24l.7.1v.22h-1.26l-.05-.22.3-.07v-1.77h-.3l-.03-.24.5-.1.13.2zM930.6 1012.33c-.18.13-.4.2-.7.2-.35 0-.62-.12-.8-.36-.2-.2-.3-.5-.3-.83.02-.36.1-.65.3-.87.18-.24.44-.37.76-.37.2 0 .4.06.53.18.14.12.2.27.2.46 0 .2-.04.34-.13.45-.1.1-.2.18-.35.23-.24.1-.56.15-.96.15.03.2.1.35.23.47.1.13.3.2.52.2.23 0 .42-.07.6-.2l.08.28zm-1.37-1.05c.3 0 .5-.02.63-.06.13-.05.23-.1.3-.17s.12-.16.12-.3c0-.1-.05-.2-.14-.28-.07-.05-.17-.08-.28-.08-.12 0-.22 0-.3.06-.1.05-.17.12-.23.2-.12.17-.18.38-.2.62h.1zM931.82 1010.1c.1 0 .2 0 .3.04s.16.07.23.12c.12.1.22.2.27.32l-.4.14-.1-.25c-.07-.06-.17-.1-.3-.1-.1 0-.18.03-.24.07-.1.08-.17.17-.17.28 0 .1.05.2.13.25.1.06.23.12.44.2s.37.15.46.26c.1.1.14.24.14.38 0 .15-.02.26-.07.34-.04.1-.1.16-.18.2-.15.12-.32.18-.53.18-.2 0-.4-.05-.55-.16-.1-.08-.2-.2-.27-.32l.4-.15.1.25c.1.06.2.08.34.08.1 0 .18-.02.24-.06.12-.1.18-.18.18-.3 0-.1-.03-.2-.1-.27-.08-.05-.22-.12-.44-.2-.4-.13-.62-.34-.62-.65 0-.2.07-.36.22-.48.14-.12.32-.17.52-.17zM934.05 1012.52c-.18 0-.34-.03-.48-.1v1.12l.6.1v.23h-1.16l-.04-.23.3-.06v-3.16l-.3.02-.05-.26.54-.08.13.18c.16-.12.33-.17.52-.17s.33.04.45.1c.12.07.22.15.3.26.16.22.24.5.24.83 0 .33-.1.6-.26.84-.18.25-.45.38-.8.38zm-.48-.44c.14.1.28.16.44.16.17 0 .3-.03.4-.08.08-.06.15-.13.2-.22.1-.16.16-.37.16-.63 0-.4-.1-.67-.35-.83-.08-.05-.18-.08-.3-.08-.1 0-.2 0-.3.06s-.18.1-.23.18v1.44zM937.3 1012.33c-.18.13-.4.2-.7.2-.35 0-.62-.12-.8-.36-.2-.2-.3-.5-.3-.83 0-.36.1-.65.3-.87.18-.24.44-.37.76-.37.2 0 .4.06.53.18s.2.27.2.46c0 .2-.04.34-.13.45-.1.1-.2.18-.35.23-.24.1-.56.15-.96.15.03.2.1.35.23.47.1.13.3.2.52.2.23 0 .42-.07.6-.2l.07.28zm-1.37-1.05c.3 0 .5-.02.64-.06.12-.05.22-.1.3-.17s.1-.16.1-.3c0-.1-.04-.2-.13-.28-.07-.05-.17-.08-.28-.08-.12 0-.22 0-.3.06-.1.05-.17.12-.23.2-.12.17-.18.38-.2.62h.1zM939.4 1012.35c-.14.1-.36.17-.64.17-.34 0-.6-.12-.78-.36-.16-.22-.25-.5-.25-.82 0-.56.2-.94.57-1.13.13-.06.27-.1.44-.1.3 0 .53.07.7.2l-.23.34-.28-.24h-.18c-.25 0-.43.1-.54.3-.1.16-.14.38-.14.64 0 .4.13.68.4.82.08.05.2.08.38.08.17 0 .33-.05.48-.14l.08.25zM940.04 1011.8v-1.42h-.4l-.06-.22.04-.06h.43v-.84l.3-.06.02.05v.85h.52s.02 0 .02.03v.25h-.56v1.6c0 .1.02.17.06.2.03.03.1.05.18.05.08 0 .18-.04.3-.13l.1.26-.18.1s-.2.06-.34.06-.26-.05-.33-.15c-.07-.1-.1-.24-.1-.4v-.17zM941.86 1010.25v1.96l.3.08v.22h-.87l-.06-.2.3-.1v-1.78l-.27.02-.04-.26.5-.08.13.14zm-.5-1.1c0-.08.02-.14.07-.2.05-.04.1-.07.18-.07s.15.03.2.08c.05.05.08.1.08.18 0 .08-.03.14-.08.2s-.1.07-.2.07-.12-.02-.17-.07-.08-.1-.08-.2zM943.24 1012.5l-.72-2.13h-.2l-.03-.24.5-.04.64 1.94.63-1.67h-.22l-.03-.24.5-.03.1.18-.86 2.22h-.32zM946.47 1012.33c-.18.13-.4.2-.7.2-.35 0-.62-.12-.8-.36-.2-.2-.3-.5-.3-.83.02-.36.1-.65.3-.87.18-.24.44-.37.76-.37.2 0 .4.06.53.18.15.12.22.27.22.46 0 .2-.05.34-.14.45-.1.1-.2.18-.35.23-.25.1-.57.15-.97.15.03.2.1.35.23.47.12.13.3.2.53.2.22 0 .4-.07.58-.2l.1.28zm-1.37-1.05c.3 0 .5-.02.64-.06.12-.05.22-.1.3-.17s.1-.16.1-.3c0-.1-.04-.2-.13-.28-.06-.05-.16-.08-.27-.08-.12 0-.22 0-.3.06-.1.05-.16.12-.22.2-.12.17-.18.38-.2.62h.1zM949.77 1012.35c-.14.1-.36.17-.64.17-.34 0-.6-.12-.78-.36-.16-.22-.25-.5-.25-.82 0-.56.2-.94.57-1.13.13-.06.27-.1.44-.1.3 0 .54.07.7.2l-.22.34-.3-.24h-.17c-.24 0-.42.1-.53.3-.1.16-.14.38-.14.64 0 .4.13.68.4.82.08.05.2.08.38.08s.34-.05.5-.14l.07.25zM950.1 1011.3c0-.16 0-.3.06-.46.04-.15.1-.27.2-.4.17-.23.42-.35.74-.35.34 0 .6.12.77.36.16.23.24.5.24.84 0 .33-.07.6-.23.84-.18.25-.43.38-.77.38-.32 0-.58-.13-.77-.38-.16-.22-.24-.5-.24-.85zm.47-.57c-.06.1-.1.2-.12.32-.02.1-.03.22-.03.32s0 .2.04.3c.02.1.06.2.12.28.12.2.3.28.52.28.24 0 .42-.1.54-.3.1-.15.15-.36.15-.6 0-.4-.14-.7-.38-.86-.1-.06-.2-.1-.32-.1-.13 0-.24.05-.32.1-.1.08-.16.16-.2.26zM954.3 1010.36c.2-.17.44-.25.7-.25.5 0 .74.25.74.73v1.38l.3.08v.22h-.9l-.02-.22.3-.07v-1.34c0-.3-.14-.47-.42-.47-.08 0-.17 0-.27.03s-.2.1-.32.2c.02.07.03.13.03.2v1.38l.3.08v.22h-.9l-.02-.22.3-.07v-1.34c0-.3-.13-.47-.4-.47-.23 0-.43.06-.6.2v1.6l.32.08v.22h-.86l-.03-.22.27-.07v-1.8l-.27.02-.05-.24.5-.1.12.22.3-.15s.22-.05.3-.05c.28 0 .48.1.6.25zM957.4 1012.52c-.18 0-.34-.03-.47-.1v1.12l.6.1v.23h-1.17l-.04-.23.3-.06v-3.16l-.3.02-.05-.26.52-.08.13.18c.15-.12.33-.17.5-.17s.35.04.48.1c.13.07.23.15.3.26.17.22.25.5.25.83 0 .33-.08.6-.25.84-.2.25-.45.38-.8.38zm-.47-.44c.13.1.28.16.44.16.16 0 .28-.03.37-.08.1-.06.17-.13.22-.22.1-.16.16-.37.16-.63 0-.4-.12-.67-.35-.83-.1-.05-.2-.08-.3-.08-.1 0-.22 0-.32.06s-.17.1-.22.18v1.44zM960.2 1012.3c-.16.15-.36.22-.6.22-.2 0-.37-.06-.5-.17-.16-.13-.24-.28-.24-.47 0-.18.05-.33.14-.43s.2-.18.34-.24c.2-.08.5-.13.83-.14v-.32c0-.1-.04-.2-.12-.25-.08-.08-.18-.1-.32-.1-.16 0-.27 0-.34.06l-.1.26-.4-.07c.06-.18.16-.3.32-.4.14-.1.3-.14.48-.14.28 0 .48.07.6.2.13.13.2.3.2.52v1.3c0 .08.03.13.1.13.03 0 .07 0 .1-.02l.06.2c-.07.06-.16.1-.27.1-.16 0-.26-.08-.3-.23zm-.9-.72c-.07.07-.1.16-.1.27s.03.2.1.28c.1.07.2.1.32.1.25 0 .43-.1.55-.27v-.62c-.4 0-.7.08-.87.24zM962.26 1010.4c-.22 0-.4.06-.57.2v1.6l.3.08v.22h-.87l-.03-.2.27-.1v-1.8l-.27.02-.04-.23.5-.1.1.2c.2-.13.4-.2.63-.2.22 0 .4.07.52.2.12.1.18.3.18.53v1.38l.3.08v.22h-.9v-.22l.3-.07v-1.33c0-.32-.15-.48-.44-.48zM964.23 1010.25v1.96l.3.08v.22h-.87l-.05-.2.3-.1v-1.78l-.26.02-.04-.26.5-.08.13.14zm-.5-1.1c0-.08.02-.14.07-.2.05-.04.1-.07.18-.07s.14.03.2.08c.04.05.07.1.07.18 0 .08-.03.14-.08.2s-.12.07-.2.07-.13-.02-.18-.07-.08-.1-.08-.2zM966.64 1012.33c-.17.13-.4.2-.7.2-.35 0-.62-.12-.8-.36-.2-.2-.28-.5-.28-.83 0-.36.1-.65.28-.87.2-.24.45-.37.77-.37.22 0 .4.06.53.18.15.12.22.27.22.46 0 .2-.04.34-.13.45-.1.1-.2.18-.36.23-.23.1-.55.15-.96.15.04.2.1.35.23.47.13.13.3.2.53.2.23 0 .43-.07.6-.2l.08.28zm-1.37-1.05c.3 0 .5-.02.64-.06.14-.05.24-.1.3-.17s.12-.16.12-.3c0-.1-.04-.2-.13-.28-.1-.05-.18-.08-.3-.08-.1 0-.2 0-.3.06-.1.05-.16.12-.22.2-.12.17-.2.38-.2.62h.1zM967.87 1010.1c.1 0 .2 0 .3.04s.16.07.22.12c.12.1.2.2.27.32l-.4.14-.1-.25c-.07-.06-.17-.1-.3-.1-.1 0-.18.03-.24.07-.12.08-.18.17-.18.28 0 .1.04.2.12.25.1.06.24.12.45.2s.36.15.46.26c.1.1.14.24.14.38 0 .15-.02.26-.07.34-.05.1-.1.16-.18.2-.15.12-.33.18-.54.18-.2 0-.37-.05-.53-.16-.1-.08-.2-.2-.28-.32l.4-.15.1.25c.1.06.2.08.34.08.1 0 .2-.02.25-.06.13-.1.2-.18.2-.3 0-.1-.05-.2-.13-.27-.06-.05-.2-.12-.43-.2-.4-.13-.62-.34-.62-.65 0-.2.08-.36.23-.48.14-.12.3-.17.52-.17zM898.1 1018.52c-.43 0-.77-.18-1.02-.55-.22-.32-.33-.72-.33-1.2s.1-.85.33-1.17c.1-.16.25-.3.42-.4.17-.1.38-.15.62-.15.23 0 .44.05.6.15s.32.24.43.4c.22.33.32.72.32 1.2 0 .45-.1.84-.32 1.17-.1.16-.25.3-.42.4s-.38.15-.62.15zm-1-1.73c0 .38.08.7.23.94.18.3.44.44.78.44.35 0 .6-.15.8-.44.14-.25.22-.56.22-.94 0-.4-.08-.7-.23-.96-.2-.3-.45-.46-.8-.46-.33 0-.6.15-.77.45-.15.26-.23.58-.23.96zM900.22 1017.8v-1.42h-.4l-.06-.22.04-.06h.43v-.84l.3-.06.02.05v.85h.52c.02 0 .03 0 .03.03v.25h-.56v1.6c0 .1.02.17.06.2.03.03.1.05.18.05.08 0 .18-.04.3-.13l.1.26-.18.1s-.2.06-.34.06-.26-.05-.33-.15c-.07-.1-.1-.24-.1-.4v-.17zM902.57 1016.4c-.22 0-.4.06-.57.2v1.6l.28.07v.23h-.86l-.03-.22.28-.07v-3h-.27l-.04-.25.5-.1.14.16v1.3c.18-.13.38-.2.6-.2.23 0 .4.07.53.2.12.1.18.3.18.53v1.38l.32.08v.22h-.9l-.02-.22.3-.07v-1.34c0-.3-.15-.47-.43-.47zM905.72 1018.33c-.17.13-.4.2-.7.2-.35 0-.62-.12-.8-.36-.2-.2-.28-.5-.28-.83 0-.36.1-.65.28-.87.2-.24.45-.37.77-.37.2 0 .37.06.5.18.16.12.23.27.23.46 0 .2-.04.34-.13.45-.1.1-.2.18-.36.23-.23.1-.55.15-.96.15.04.2.1.35.24.47.12.13.3.2.52.2.23 0 .43-.07.6-.2l.08.28zm-1.37-1.05c.3 0 .5-.02.64-.06.12-.05.22-.1.3-.17s.1-.16.1-.3c0-.1-.04-.2-.13-.28-.08-.05-.17-.08-.3-.08-.1 0-.2 0-.3.06-.08.05-.15.12-.2.2-.13.17-.2.38-.2.62h.08zM906.74 1016.3c.15-.14.32-.2.5-.2.23 0 .43.1.6.32l-.4.2-.16-.24c-.12 0-.23.04-.34.13-.13.1-.2.26-.2.44v1.24l.7.1v.22h-1.27l-.04-.22.3-.07v-1.77h-.28l-.04-.24.5-.1.14.2zM909.63 1018.18v-2.8l-.28-.04v-.3h.88l.02.3-.27.03v2.8l.28.03v.3h-.88l-.02-.28.27-.04zM912.36 1018.35c-.15.1-.37.17-.65.17-.32 0-.58-.12-.77-.36-.16-.22-.24-.5-.24-.82 0-.56.18-.94.55-1.13.13-.06.28-.1.44-.1.3 0 .52.07.7.2l-.23.34-.3-.24h-.18c-.25 0-.43.1-.55.3-.1.16-.13.38-.13.64 0 .4.13.68.38.82.1.05.23.08.4.08.16 0 .32-.05.47-.14l.1.25zM912.67 1017.3c0-.16.03-.3.07-.46.04-.15.1-.27.2-.4.18-.23.43-.35.74-.35.34 0 .6.12.78.36.16.23.24.5.24.84 0 .33-.08.6-.25.84-.17.25-.43.38-.77.38-.32 0-.57-.13-.76-.38-.16-.22-.25-.5-.25-.85zm.48-.57c-.05.1-.1.2-.1.32-.03.1-.04.22-.04.32s.02.2.04.3c.03.1.07.2.13.28.12.2.3.28.52.28.22 0 .4-.1.52-.3.1-.15.15-.36.15-.6 0-.4-.12-.7-.36-.86-.08-.06-.2-.1-.32-.1-.13 0-.23.05-.32.1-.1.08-.16.16-.2.26zM916.27 1016.4c-.22 0-.4.06-.57.2v1.6l.3.08v.22h-.86l-.03-.2.28-.1v-1.8l-.27.02-.03-.23.5-.1.1.2c.2-.13.4-.2.63-.2.23 0 .4.07.53.2.12.1.18.3.18.53v1.38l.32.08v.22h-.9l-.02-.22.3-.07v-1.33c0-.32-.14-.48-.43-.48zM918.44 1016.1c.1 0 .2 0 .3.04s.16.07.22.12c.13.1.22.2.28.32l-.4.14-.1-.25c-.07-.06-.18-.1-.3-.1-.1 0-.18.03-.24.07-.12.08-.18.17-.18.28 0 .1.04.2.12.25.1.06.24.12.45.2s.35.15.45.26c.1.1.14.24.14.38 0 .15-.03.26-.08.34-.05.1-.1.16-.18.2-.15.12-.33.18-.54.18-.2 0-.37-.05-.53-.16-.1-.08-.2-.2-.28-.32l.38-.15.12.25c.1.06.2.08.33.08.1 0 .2-.02.25-.06.12-.1.18-.18.18-.3 0-.1-.04-.2-.12-.27-.06-.05-.2-.12-.43-.2-.4-.13-.6-.34-.6-.65 0-.2.07-.36.22-.48.14-.12.3-.17.52-.17zM920 1016.57c-.07 0-.14-.03-.2-.08s-.06-.12-.06-.2.02-.13.07-.18c.06-.05.13-.08.2-.08s.13.03.18.08c.05.05.07.1.07.2s-.02.12-.07.17-.1.07-.18.07zm0 1.04c-.07 0-.14 0-.2-.06s-.06-.1-.06-.18c0-.07.02-.14.07-.2s.13-.07.2-.07.13.02.18.07.07.12.07.2c0 .06-.02.12-.07.17s-.1.08-.18.08zM922.33 1017.6l.13.48c.14.07.28.1.4.1.14 0 .25 0 .33-.03l.22-.1c.15-.12.22-.27.22-.45 0-.13-.02-.24-.08-.34-.06-.1-.17-.2-.32-.26l-.43-.2-.37-.2c-.1-.1-.2-.18-.28-.3s-.1-.22-.1-.37.02-.28.07-.4c.06-.1.13-.18.23-.25.2-.16.43-.23.7-.23.23 0 .5.05.78.16l.06.78h-.28l-.2-.53c-.12-.05-.23-.07-.34-.07-.12 0-.22 0-.3.03l-.2.1c-.12.1-.18.2-.18.33s.02.23.08.3c.05.08.12.15.2.2.08.06.17.1.27.14l.34.15c.1.06.22.12.32.2.1.08.18.16.23.24.1.14.15.3.15.47s-.03.32-.1.44-.12.22-.22.3c-.2.17-.45.25-.74.25-.33 0-.6-.05-.84-.16l-.06-.77h.3zM925.97 1018.32c-.17.13-.37.2-.6.2-.33 0-.56-.14-.68-.42-.05-.1-.07-.23-.07-.38v-1.3h-.27l-.04-.24.5-.1.13.16v1.47c0 .23.06.38.18.46.08.05.17.07.3.07s.2-.02.3-.07c.1-.05.17-.1.2-.16v-1.57h-.26l-.03-.24.5-.1.12.14v1.9c0 .07.04.1.1.1h.1l.04.17c-.02.03-.05.05-.1.08s-.1.04-.18.04c-.13 0-.22-.07-.25-.2zM927.3 1018.4c-.1.06-.15.1-.17.1h-.08v-3.3l-.3.02-.04-.26.53-.1.14.15v1.3c.14-.13.3-.2.5-.2s.35.04.47.1c.12.07.22.15.3.26.16.22.24.5.24.83 0 .33-.08.6-.25.84-.18.25-.44.38-.78.38-.2 0-.4-.04-.54-.13zm.07-.32c.13.1.27.16.43.16.16 0 .3-.03.38-.08.1-.06.16-.13.22-.22.1-.16.15-.37.15-.63 0-.4-.1-.67-.35-.83-.1-.05-.2-.08-.3-.08-.1 0-.2 0-.3.06s-.2.1-.23.18v1.44zM930.92 1016.27l.6 1.85.4-1.75h-.22l-.05-.24.54-.03.06.13-.55 2.27h-.42l-.5-1.64-.5 1.64h-.48l-.42-2.13h-.2l-.05-.24.55-.03.4 2.05.58-1.87h.26zM933.96 1018.3c-.16.15-.36.22-.6.22-.2 0-.37-.06-.5-.17-.16-.13-.24-.28-.24-.47 0-.18.05-.33.14-.43s.2-.18.34-.24c.2-.08.5-.13.83-.14v-.32c0-.1-.04-.2-.12-.25-.06-.08-.17-.1-.3-.1-.16 0-.28 0-.35.06l-.08.26-.4-.07c.05-.18.15-.3.3-.4.15-.1.3-.14.5-.14.27 0 .47.07.6.2.12.13.18.3.18.52v1.3c0 .08.04.13.12.13.02 0 .06 0 .1-.02l.06.2c-.07.06-.17.1-.28.1-.15 0-.25-.08-.3-.23zm-.9-.72c-.07.07-.1.16-.1.27s.04.2.12.28c.08.07.18.1.3.1.25 0 .44-.1.56-.27v-.62c-.42 0-.7.08-.88.24zM934.82 1019.42c.1.1.2.15.3.15.1 0 .22-.1.3-.3l.06-.17.13-.36-.76-2.36h-.17l-.04-.25.48-.03.7 2.13.65-1.85h-.18l-.04-.25.48-.03.1.18-.52 1.4-.44 1.2c-.1.3-.18.47-.22.55l-.12.2c-.1.16-.23.24-.4.24-.13 0-.28-.06-.43-.18l.15-.28zM938.7 1018.4c-.1.06-.17.1-.2.1h-.07v-3.3l-.3.02-.04-.26.5-.1.15.15v1.3c.15-.13.32-.2.5-.2.2 0 .36.04.48.1.12.07.22.15.3.26.16.22.24.5.24.83 0 .33-.08.6-.25.84-.2.25-.45.38-.8.38-.2 0-.38-.04-.53-.13zm.05-.32c.13.1.28.16.44.16.15 0 .27-.03.36-.08.1-.06.17-.13.23-.22.1-.16.14-.37.14-.63 0-.4-.12-.67-.35-.83-.1-.05-.2-.08-.3-.08-.12 0-.23 0-.33.06s-.17.1-.22.18v1.44zM940.67 1019.42c.1.1.2.15.3.15.1 0 .2-.1.3-.3l.05-.17.13-.36-.77-2.36h-.17l-.03-.25.48-.03.7 2.13.65-1.85h-.18l-.04-.25.47-.03.1.18-.53 1.4-.44 1.2-.2.55-.13.2c-.1.16-.24.24-.4.24-.14 0-.28-.06-.44-.18l.17-.28zM945.03 1015.04l.98 3.03.94-3.03h.8l.02.3-.26.03v2.8l.3.05v.28h-.9l-.02-.28.28-.06v-2.84l-.96 3.1h-.44l-.98-3.04v2.8l.32.04v.28h-.9l-.03-.28.3-.06v-2.8l-.3-.02v-.3h.86zM949.57 1018.3c-.16.15-.36.22-.6.22-.2 0-.37-.06-.5-.17-.16-.13-.24-.28-.24-.47 0-.18.05-.33.14-.43s.2-.18.34-.24c.22-.08.5-.13.84-.14v-.32c0-.1-.04-.2-.12-.25-.08-.08-.18-.1-.32-.1-.16 0-.27 0-.34.06l-.08.26-.4-.07c.05-.18.15-.3.3-.4.15-.1.3-.14.5-.14.27 0 .47.07.6.2.12.13.18.3.18.52v1.3c0 .08.04.13.1.13.04 0 .08 0 .12-.02l.05.2c-.07.06-.16.1-.27.1-.15 0-.25-.08-.3-.23zm-.9-.72c-.07.07-.1.16-.1.27s.03.2.1.28c.1.07.2.1.32.1.24 0 .42-.1.54-.27v-.62c-.4 0-.7.08-.87.24zM951.06 1016.3c.15-.14.32-.2.5-.2.24 0 .43.1.6.32l-.4.2-.16-.24c-.12 0-.23.04-.34.13-.13.1-.2.26-.2.44v1.24l.7.1v.22h-1.26l-.05-.22.3-.07v-1.77h-.27l-.04-.24.5-.1.12.2zM953 1016.25v1.96l.3.08v.22h-.87l-.05-.2.3-.1v-1.78l-.27.02-.03-.26.5-.08.13.14zm-.5-1.1c0-.08.02-.14.07-.2.05-.04.1-.07.18-.07s.14.03.2.08c.04.05.07.1.07.18 0 .08-.03.14-.08.2s-.1.07-.2.07-.12-.02-.17-.07-.08-.1-.08-.2zM955.16 1018.32c-.16.13-.36.2-.58.2-.34 0-.57-.14-.7-.42-.03-.1-.05-.23-.05-.38v-1.3h-.27l-.04-.24.5-.1.13.16v1.47c0 .23.06.38.18.46.08.05.17.07.3.07s.2-.02.3-.07c.1-.05.17-.1.2-.16v-1.57h-.26l-.03-.24.5-.1.12.14v1.9c0 .07.04.1.1.1h.1l.04.17c-.02.03-.05.05-.1.08s-.1.04-.18.04c-.13 0-.22-.07-.26-.2zM956.88 1016.1c.1 0 .2 0 .3.04s.16.07.22.12c.13.1.22.2.28.32l-.4.14-.1-.25c-.07-.06-.17-.1-.3-.1-.1 0-.18.03-.24.07-.12.08-.18.17-.18.28 0 .1.04.2.12.25.1.06.24.12.45.2s.36.15.46.26c.08.1.13.24.13.38 0 .15-.02.26-.07.34-.05.1-.1.16-.18.2-.15.12-.33.18-.54.18-.2 0-.37-.05-.53-.16-.1-.08-.2-.2-.27-.32l.4-.15.1.25c.1.06.2.08.34.08.1 0 .2-.02.25-.06.12-.1.18-.18.18-.3 0-.1-.04-.2-.12-.27-.06-.05-.2-.12-.43-.2-.4-.13-.62-.34-.62-.65 0-.2.08-.36.23-.48.14-.12.3-.17.52-.17zM961.5 1015.48l-1.8 2.68h1.5l.1-.5h.22v.84h-2.18l-.05-.38 1.83-2.74h-1.48l-.1.5h-.23v-.84h2.12l.05.44zM961.95 1017.3c0-.16.02-.3.07-.46.04-.15.1-.27.2-.4.18-.23.43-.35.74-.35.34 0 .6.12.77.36.17.23.25.5.25.84 0 .33-.08.6-.25.84-.17.25-.43.38-.77.38-.32 0-.58-.13-.76-.38-.16-.22-.25-.5-.25-.85zm.48-.57c-.05.1-.1.2-.1.32-.03.1-.04.22-.04.32s0 .2.02.3c.03.1.07.2.13.28.12.2.3.28.52.28.23 0 .4-.1.53-.3.1-.15.15-.36.15-.6 0-.4-.12-.7-.36-.86-.1-.06-.2-.1-.34-.1-.13 0-.23.05-.32.1-.1.08-.16.16-.2.26zM965.2 1016.1c.1 0 .2 0 .28.04s.17.07.24.12c.12.1.22.2.27.32l-.4.14-.1-.25c-.08-.06-.18-.1-.32-.1-.1 0-.17.03-.23.07-.1.08-.17.17-.17.28 0 .1.04.2.12.25.1.06.23.12.44.2s.37.15.46.26c.1.1.14.24.14.38 0 .15-.02.26-.07.34-.04.1-.1.16-.18.2-.16.12-.33.18-.54.18-.2 0-.38-.05-.54-.16-.1-.08-.2-.2-.27-.32l.4-.15.1.25c.1.06.2.08.34.08.1 0 .17-.02.23-.06.12-.1.18-.18.18-.3 0-.1-.02-.2-.1-.27-.07-.05-.2-.12-.43-.2-.4-.13-.62-.34-.62-.65 0-.2.07-.36.22-.48.14-.12.32-.17.52-.17zM966.67 1017.8v-1.42h-.4l-.06-.22.04-.06h.44v-.84l.3-.06.02.05v.85h.52c.02 0 .03 0 .03.03v.25H967v1.6c0 .1 0 .17.04.2s.1.05.2.05c.07 0 .17-.04.3-.13l.08.26-.17.1s-.2.06-.34.06-.25-.05-.32-.15c-.08-.1-.1-.24-.1-.4v-.17zM968.48 1016.3c.15-.14.32-.2.5-.2.24 0 .43.1.6.32l-.4.2-.16-.24c-.12 0-.23.04-.34.13-.13.1-.2.26-.2.44v1.24l.7.1v.22h-1.26l-.05-.22.3-.07v-1.77h-.27l-.04-.24.5-.1.12.2zM969.8 1017.3c0-.16.02-.3.06-.46.05-.15.1-.27.2-.4.18-.23.43-.35.75-.35.35 0 .6.12.78.36.16.23.24.5.24.84 0 .33-.08.6-.24.84-.18.25-.44.38-.77.38-.3 0-.57-.13-.76-.38-.16-.22-.24-.5-.24-.85zm.48-.57c-.06.1-.1.2-.12.32-.02.1-.03.22-.03.32s0 .2.04.3c.02.1.06.2.12.28.1.2.3.28.5.28.25 0 .42-.1.54-.3.1-.15.15-.36.15-.6 0-.4-.13-.7-.37-.86-.1-.06-.2-.1-.32-.1s-.23.05-.32.1c-.08.08-.15.16-.2.26zM973.86 1016.27l.6 1.85.4-1.75h-.22l-.05-.24.53-.03.07.13-.55 2.27h-.43l-.5-1.64-.5 1.64h-.48l-.42-2.13h-.2l-.05-.24.55-.03.4 2.05.58-1.87h.26zM976.36 1016.1c.1 0 .2 0 .3.04s.16.07.23.12c.1.1.2.2.26.32l-.4.14-.1-.25c-.07-.06-.17-.1-.3-.1-.1 0-.18.03-.24.07-.1.08-.17.17-.17.28 0 .1.04.2.12.25.08.06.23.12.44.2s.37.15.47.26c.1.1.14.24.14.38 0 .15 0 .26-.06.34-.04.1-.1.16-.18.2-.15.12-.33.18-.53.18s-.38-.05-.54-.16c-.12-.08-.2-.2-.28-.32l.4-.15.1.25c.1.06.2.08.34.08.1 0 .18-.02.24-.06.12-.1.18-.18.18-.3 0-.1-.03-.2-.1-.27-.08-.05-.22-.12-.44-.2-.4-.13-.62-.34-.62-.65 0-.2.07-.36.22-.48.14-.12.32-.17.52-.17zM978.1 1015v2.14l.88-.8h-.2l-.05-.24h.7l.06.13-.85.8.62 1.2.26.05v.22h-.5l-.64-1.25-.3.28v.68l.28.08v.22h-.86l-.03-.22.28-.07v-3h-.27l-.04-.25.5-.08.14.14zM980.43 1016.25v1.96l.3.08v.22h-.87l-.04-.2.3-.1v-1.78l-.27.02-.05-.26.5-.08.13.14zm-.5-1.1c0-.08.02-.14.07-.2.05-.04.12-.07.2-.07s.12.03.18.08c.05.05.07.1.07.18 0 .08-.02.14-.07.2s-.12.07-.2.07-.13-.02-.18-.07-.07-.1-.07-.2zM984.57 1018.36c-.13.1-.3.16-.5.16-.27 0-.5-.1-.66-.27-.16-.2-.25-.44-.25-.76 0-.4.1-.66.34-.84.16-.13.35-.2.58-.2.15 0 .3.03.42.1l.22-.1.1.02v1.6c0 .08.06.12.17.12.13 0 .25-.1.36-.28.1-.18.15-.37.15-.58 0-.2-.02-.4-.08-.57s-.15-.32-.27-.44c-.25-.26-.58-.4-1-.4-.43 0-.8.15-1.1.44-.28.3-.42.64-.42 1.05 0 .2.03.4.1.6.08.18.2.35.32.5.13.13.28.25.46.34.2.08.4.13.6.13.22 0 .42-.05.6-.12l.07.02-.1.32c-.18.05-.4.08-.63.08-.23 0-.46-.05-.68-.15-.2-.1-.4-.25-.56-.42-.16-.17-.3-.37-.38-.6-.1-.23-.13-.47-.13-.72s.04-.47.14-.7c.1-.2.24-.4.4-.56.18-.16.4-.28.6-.38.24-.1.48-.13.73-.13.5 0 .9.16 1.22.48.3.32.45.74.45 1.25 0 .3-.07.56-.22.8-.17.24-.4.37-.66.37-.2 0-.32-.05-.4-.16zm-.08-1.5c-.13-.05-.26-.1-.4-.1-.25 0-.43.13-.55.35-.04.1-.07.22-.07.37s.02.28.06.37c.04.1.1.17.16.22.1.1.23.14.4.14.14 0 .27-.04.4-.12v-1.2zM989.14 1016.27l.6 1.85.4-1.75h-.22l-.05-.24.54-.03.08.13-.55 2.27h-.43l-.5-1.64-.5 1.64h-.48l-.42-2.13h-.2l-.05-.24.55-.03.4 2.05.58-1.87h.26zM992.47 1016.27l.6 1.85.4-1.75h-.23l-.04-.24.54-.03.07.13-.55 2.27h-.43l-.5-1.64-.5 1.64h-.47l-.43-2.13h-.2l-.05-.24.55-.03.4 2.05.58-1.87h.27zM995.8 1016.27l.6 1.85.4-1.75h-.23l-.05-.24.54-.03.07.13-.55 2.27h-.43l-.5-1.64-.5 1.64h-.48l-.42-2.13h-.2l-.05-.24.55-.03.4 2.05.58-1.87h.26zM997.72 1018.5c-.07 0-.13 0-.18-.06-.05-.05-.08-.1-.08-.18 0-.07.03-.14.08-.2s.1-.06.18-.06c.07 0 .13.02.2.07s.06.1.06.2c0 .06-.02.12-.07.17-.05.05-.1.07-.18.07zM999.48 1018.52c-.18 0-.34-.03-.47-.1v1.12l.6.1v.23h-1.16l-.04-.23.3-.06v-3.16l-.3.02-.05-.26.52-.08.14.18c.16-.12.34-.17.52-.17s.34.04.46.1c.13.07.23.15.3.26.17.22.25.5.25.83 0 .33-.1.6-.25.84-.2.25-.45.38-.8.38zm-.47-.44c.14.1.3.16.45.16.15 0 .28-.03.37-.08.1-.06.17-.13.22-.22.1-.16.16-.37.16-.63 0-.4-.12-.67-.36-.83-.08-.05-.18-.08-.3-.08-.1 0-.2 0-.3.06s-.18.1-.23.18v1.44zM1001.54 1016.25v1.96l.3.08v.22h-.87l-.05-.2.3-.1v-1.78l-.27.02-.04-.26.5-.08.14.14zm-.5-1.1c0-.08.02-.14.07-.2.06-.04.12-.07.2-.07s.13.03.18.08c.05.05.08.1.08.18 0 .08-.03.14-.08.2s-.1.07-.2.07-.12-.02-.17-.07-.07-.1-.07-.2zM1002.18 1018.5l-.05-.26h.2l.58-.95-.56-.9h-.2v-.3h.4l.62.95.57-.94h.35v.27h-.16l-.58.95.57.9h.22v.28h-.42l-.6-.94-.57.94h-.35zM1005.02 1015v3.2l.3.08v.22h-.9l-.03-.22.3-.07v-3h-.27l-.04-.25.48-.1.14.16zM1007.44 1018.33c-.18.13-.4.2-.7.2-.35 0-.62-.12-.8-.36-.2-.2-.28-.5-.28-.83 0-.36.1-.65.27-.87.2-.24.45-.37.78-.37.22 0 .4.06.53.18.15.12.22.27.22.46 0 .2-.04.34-.14.45-.08.1-.2.18-.34.23-.24.1-.56.15-.96.15.03.2.1.35.23.47.12.13.3.2.53.2.23 0 .43-.07.6-.2l.08.28zm-1.37-1.05c.3 0 .5-.02.64-.06.13-.05.24-.1.3-.17s.12-.16.12-.3c0-.1-.04-.2-.13-.28-.1-.05-.2-.08-.3-.08-.1 0-.22 0-.3.06-.1.05-.16.12-.22.2-.12.17-.2.38-.2.62h.1zM1008.18 1018.5c-.08 0-.14 0-.2-.06-.04-.05-.06-.1-.06-.18 0-.07.02-.14.07-.2s.1-.06.18-.06c.07 0 .13.02.18.07s.08.1.08.2c0 .06-.03.12-.08.17-.05.05-.1.07-.18.07zM1009.94 1018.52c-.2 0-.34-.03-.48-.1v1.12l.6.1v.23h-1.16l-.05-.23.3-.06v-3.16l-.3.02-.05-.26.53-.08.13.18c.16-.12.33-.17.52-.17s.34.04.46.1c.12.07.22.15.3.26.16.22.24.5.24.83 0 .33-.08.6-.25.84-.18.25-.45.38-.8.38zm-.48-.44c.14.1.28.16.44.16.16 0 .28-.03.38-.08.1-.06.16-.13.22-.22.1-.16.15-.37.15-.63 0-.4-.1-.67-.35-.83-.1-.05-.2-.08-.3-.08-.1 0-.2 0-.3.06s-.2.1-.24.18v1.44zM1011.93 1015v3.2l.3.08v.22h-.9l-.03-.22.32-.07v-3h-.27l-.05-.25.5-.1.13.16z"/><g fill="#BF4040"><path d="M504 896h16v16h-16z"/><path d="M528 896h16v16h-16zM480 896h16v16h-16z" opacity=".8"/><path d="M552 896h16v16h-16zM456 896h16v16h-16z" opacity=".6"/><path d="M576 896h16v16h-16zM432 896h16v16h-16z" opacity=".4"/><path d="M600 896h16v16h-16zM408 896h16v16h-16z" opacity=".2"/><path d="M624 896h16v16h-16zM384 896h16v16h-16z" opacity=".1"/></g><g><path fill="#007BB5" d="M256 896h128v128H256V896z"/><path fill="#FFF" d="M305.85 944h18.25v8.35h.25c2.5-4.8 8.7-9.9 18-9.9 19.15 0 22.7 12.6 22.7 29v33.5h-18.9V975.3c0-7-.15-16.2-9.85-16.2-9.9 0-11.4 7.75-11.4 15.7v30.2h-19v-61h-.05zM275 944h19v61h-19v-61zm9.5-30.4c6 0 11 5 11 11 0 6.1-5 11-11 11-6.1 0-11-4.9-11-11 0-6 4.9-11 11-11"/></g><g><path fill="#5FA9DD" d="M128 896h128v128H128V896z"/><path fill="#FFF" d="M224 940.15c-2.35 1-4.9 1.75-7.5 2 2.65-1.5 4.75-4.15 5.75-7.2-2.5 1.5-5.35 2.5-8.35 3.15-2.4-2.5-5.8-4.15-9.6-4.15-7.25 0-13.1 5.85-13.1 13.1 0 1 .1 2 .3 3-10.9-.5-20.5-5.75-27-13.7-1.2 2-1.8 4.2-1.8 6.6 0 4.5 2.3 8.5 5.8 11-2.15-.15-4.15-.75-6-1.7v.15c0 6.3 4.6 11.6 10.6 12.8-1.1.3-2.25.5-3.5.5-.8 0-1.65-.1-2.5-.25 1.75 5.25 6.6 9 12.35 9.15-4.5 3.5-10.2 5.65-16.35 5.65-1.1 0-2.1 0-3.15-.2 5.8 3.75 12.7 5.9 20.15 5.9 24.15 0 37.35-20 37.35-37.35v-1.7c2.5-1.9 4.75-4.2 6.5-6.85l.05.1z"/></g><g><path fill="#3D5A98" d="M0 896h128v128H0V896z"/><path fill="#FFF" d="M88.3 1024v-49.5H105l2.5-19.4H88.3v-12.3c0-5.6 1.5-9.4 9.6-9.4h10.2V916c-1.75-.25-7.8-.75-14.9-.75-14.75 0-24.85 9-24.85 25.5V955H51.7v19.35h16.65v49.5h20l-.05.15z"/></g><g><path fill="#BF4040" d="M961 768l64 63.75v48L913 768"/><path fill="#811616" d="M904 776l8-8 8 8m97 96.75v16l8-8"/><path fill="#FFF" d="M955.6 794.65l-1.7 1.75c-.1 0-.15.15-.2.2l1.15 1.65-1.7 1.7-4.7-4.75 1.4-2 1.8 1.25 12.65-12.65-1.3-1.6 1.85-1.8 5 5-8.2 20.35L974 791.4l-1.3-1.7 1.75-1.75 4.7 4.75-1.5 2.15-1.8-1.25-14.5 14.5-3.6-3.5 8.25-20.5-10.4 10.5v.05zm26.05 16.85c-.5.5-1 .85-1.7 1.15-.7.3-1.5.4-2.3.3-2-.25-4.2-1.6-6.7-4-1 1.5-1.2 3-.5 4.4.2.5.5 1 1 1.5l1.15 1 1 .5c.7.2 1.2.3 1.5.3l-1.1 2.25c-.3 0-.8-.2-1.35-.5-2.3-.9-3.9-2.4-4.9-4.5-.9-1.85-.9-3.8 0-5.75.5-1 1.2-2 2.15-3s2-1.65 3-2.1c1-.5 2-.7 3-.7 2-.15 3.75.5 5.15 2 1.15 1 1.75 2.25 1.9 3.5.15 1.35-.25 2.5-1.25 3.5l-.05.15zm-2.5-2.15c.5-.5.75-1 .8-1.5 0-.5-.2-1-.7-1.5-.5-.4-.9-.7-1.35-.85-.5-.2-1-.25-1.5-.25-1.25.1-2.5.7-3.8 1.8 1.15 1.25 2.1 2 2.85 2.4.85.4 1.5.6 2.1.6s1.15-.2 1.6-.65v-.05zm-1.65 15.05l7.85-12.25-1-1 1.3-1.7 3.4 2.9-7.25 11.1 11.15-6.65 2.6 2.65-6.5 11.35 9.4-5.65-1.1-1.1 1.35-1.65 2.9 2.4-.3 1.4-13.5 8.3-2.9-2.85 6.3-10.85-10.8 6.35-2.85-2.85-.05.1z"/></g><g><path fill="#BF4040" d="M833 768l64 63.75v48L785 768"/><path fill="#811616" d="M776 776l8-8 8 8m97 96.75v16l8-8"/><path fill="#FFF" d="M818.75 791.9L823 788l1.65 1.7-2.15 3c.5 1 1 1.75 1.7 2.5 1.4 1.35 2.8 1.85 4.2 1.5.5-.2 1-.5 1.5-1s.75-1 .8-1.75c.1-.75 0-1.6-.35-2.6l-1.1-3c-.4-.85-.7-1.8-.85-2.7-.15-.9-.1-1.85.1-2.75.2-1 .7-1.75 1.5-2.5.75-.8 1.5-1.35 2.35-1.6.8-.25 1.65-.3 2.5-.2 1.75.25 3.4 1.1 4.85 2.5 1.4 1.5 2.5 3 3.35 4.85l-3.75 4.5-1.7-1.65 1.6-3.65c-.3-.65-.85-1.3-1.5-2-.8-.8-1.5-1.2-2.4-1.4-.85-.15-1.6.1-2.3.8-.8.8-1 1.85-.8 3.15l.5 1.85c.3.6.6 1.3.9 2.15.3.8.5 1.65.7 2.5.15.85.15 1.6.1 2.3-.15 1.35-.7 2.5-1.65 3.4s-1.85 1.5-2.75 1.85-1.8.35-2.75.2c-1.7-.3-3.4-1.25-5-2.9s-2.8-3.35-3.4-5.2l-.1.05zm16.9 6.75c.9-1 1.85-1.6 2.85-2s2-.75 3-.75c1.9-.1 3.5.6 5 2 1.5 1.5 2.2 3.25 2.1 5.3-.1 2-1 3.9-2.85 5.7-1.85 1.85-3.8 2.8-5.9 2.85-2 .1-3.7-.6-5.1-2-1.5-1.5-2.2-3.25-2-5.3.1-2.1 1-4 2.9-5.85v.05zm2 2.5c-1.3 1.3-2 2.5-2.15 3.75-.15 1.15.2 2.15 1 3 .85.85 1.85 1.2 3 1 1.2 0 2.5-.75 3.8-2.1 1.35-1.35 2.1-2.6 2.35-3.85s0-2.4-1-3.25c-.85-.9-2-1.2-3.25-1-1.2.35-2.5 1.15-3.75 2.5v-.05zm9.85 9.35c1-.9 1.9-1.5 2.9-2s2-.7 3-.7c1.9-.1 3.6.6 5 2 1.5 1.5 2.2 3.25 2.1 5.3-.1 2-1 3.9-2.85 5.7-1.85 1.85-3.8 2.8-5.9 2.85-2 .1-3.7-.6-5.1-2-1.5-1.5-2.2-3.25-2-5.3.1-2 1-4 2.9-5.8l-.05-.05zm2 2.6c-1.25 1.3-2 2.5-2.1 3.7-.15 1.15.2 2.15 1 3 .85.85 1.85 1.2 3 1s2.5-.75 3.8-2.1c1.35-1.35 2.1-2.6 2.35-3.85s0-2.35-.9-3.2c-.9-.9-2-1.2-3.3-1-1.2.35-2.5 1.15-3.75 2.5l-.1-.05zm18.2 7.9c1.4.1 2.65.8 3.8 2 1.65 1.6 2.15 3.3 1.5 5-.3.65-.7 1.25-1.3 1.85l-6.6 6.6 1 1.8-1.3 1.3-4.75-4.75 1-1.6 1.85 1.1 6.3-6.3c.75-.65 1-1.35 1-2-.1-.5-.35-1.1-.85-1.6s-1.1-.85-1.75-1.1-1.2-.4-1.6-.4l-7.2 7.2 1 1.8-1.3 1.3-4.8-4.8 1-1.5 1.85 1.1 8.15-8.15-1.4-1.25 1.2-1.7c.15.2.5.4.8.6.3.25.65.5 1 .65l.9.7.7.5-.2 1.6v.05z"/></g><g><path fill="#BF4040" d="M705 768l64 63.75v48L657 768"/><path fill="#811616" d="M648 776l8-8 8 8m97 96.75v16l8-8"/><path fill="#FFF" d="M694 795.15l4.2-3.9 1.7 1.7-2.15 3c.5.9 1 1.7 1.7 2.4 1.3 1.35 2.7 1.85 4.1 1.5.5-.15 1-.5 1.5-1s.75-1 .85-1.7c0-.7 0-1.5-.4-2.5-.35-1.1-.75-2-1.1-3-.4-1-.7-1.85-.85-2.8-.15-.9-.15-1.8 0-2.7.3-.9.75-1.75 1.5-2.5s1.6-1.3 2.5-1.5c.75-.3 1.5-.35 2.4-.25 1.85.2 3.5 1 4.9 2.5 1.5 1.4 2.5 3 3.35 4.8l-3.8 4.5-1.7-1.7 1.5-3.65c-.25-.7-.8-1.4-1.5-2.1-.75-.75-1.5-1.2-2.4-1.35-.85-.15-1.6.15-2.3.8-.8.8-1 1.9-.75 3.2.1.6.3 1.2.5 1.8.3.65.5 1.35.9 2.15.3.8.5 1.65.65 2.5s.2 1.6.1 2.3c-.15 1.3-.65 2.4-1.6 3.35-1 .9-1.85 1.5-2.75 1.8s-1.85.3-2.75.2c-1.75-.3-3.4-1.2-5-2.85s-2.8-3.35-3.4-5.2l.1.2zm16.85 6.75c1-1 1.9-1.65 2.9-2.1 1-.5 2-.65 3-.7 1.85 0 3.5.65 5 2.1 1.5 1.5 2.15 3.2 2 5.2 0 2-1 4-2.75 5.7-1.85 1.9-3.85 2.85-6 2.9-1.9 0-3.6-.6-5-2-1.5-1.5-2.2-3.3-2-5.3 0-2 1-4 2.85-5.8zm2 2.5c-1.25 1.3-2 2.5-2.1 3.7-.2 1.2.15 2.2 1 3 .85.85 1.85 1.25 3 1.1 1.2-.1 2.5-.85 3.8-2.15 1.35-1.3 2.15-2.6 2.4-3.85s-.1-2.3-1-3.15c-.85-1-2-1.25-3.25-1-1.2.35-2.5 1.15-3.75 2.4l-.1-.05zm8.9 16.8l1.15 1.9-1.3 1.3-4.9-4.9 1-1.6 1.85 1.15 14.15-14-1.5-1.35 1.25-1.65 3.5 2.5v1.5l-15.15 15.2-.05-.05zm9.15 11.1c-1.25-.2-2.35-.75-3.15-1.6-.85-.8-1.5-1.65-1.75-2.5-.3-.85-.4-1.75-.35-2.65.2-1.9 1.15-3.75 2.9-5.5 2.2-2.15 4.4-3.15 6.65-3 1.7.1 3.25.8 4.5 2.15.75.65 1.25 1.5 1.6 2.3l4.5-4.5-1.5-1.3 1.25-1.65 3.5 2.5-.1 1.6-14.65 14.7c-.35.3-.4.6-.15.8.1.15.3.25.65.35l-.75 1.75c-.9 0-1.7-.5-2.4-1.15s-1-1.5-.7-2.3h-.05zm1.5-2l6.85-6.85c0-.3-.15-.7-.35-1.15-.2-.5-.5-.9-.85-1.25-.3-.35-.7-.65-1.15-.85-.5-.25-1-.3-1.6-.3-1.4 0-2.85.7-4.3 2.15-1.4 1.4-2.15 2.75-2.3 4-.1 1.2.25 2.15 1 3 .85.75 1.75 1.15 2.75 1.1l-.05.15z"/></g><g><path fill="#BF4040" d="M577 768l63.5 63.75v48L529 768"/><path fill="#811616" d="M520 776l8-8 8 8m96.5 96.75v16l8-8"/><path fill="#FFF" d="M567 796.2l4.25-3.9 1.7 1.7-2.2 3c.5 1 1 1.75 1.7 2.5 1.4 1.35 2.75 1.85 4.2 1.5.5-.2 1-.5 1.5-1 .4-.5.7-1 .8-1.75.1-.7 0-1.5-.35-2.5l-1.1-3c-.35-1-.65-1.85-.8-2.75-.15-1-.15-1.85.1-2.75.2-.9.7-1.7 1.5-2.5s1.5-1.3 2.35-1.5c.8-.3 1.6-.35 2.5-.25 1.75.25 3.35 1.1 4.85 2.5 1.4 1.5 2.5 3 3.3 4.85l-3.8 4.5-1.65-1.7 1.5-3.65c-.25-.65-.8-1.35-1.5-2-.75-.8-1.5-1.25-2.4-1.4-.85-.15-1.65.1-2.3.8-.8.8-1.1 1.85-.8 3.15.1.65.3 1.25.5 1.85l.9 2.2c.3.85.5 1.7.7 2.5.1.9.15 1.65 0 2.35 0 1.3-.6 2.4-1.5 3.35-1 .9-1.9 1.5-2.8 1.8s-1.85.4-2.75.25c-1.8-.25-3.5-1.2-5.1-2.85s-2.75-3.35-3.35-5.2l.05-.1zm18.35 17.95c-1.5 0-2.7-.5-3.8-1.5s-1.65-2.35-1.7-3.6c0-1.25.35-2.3 1.2-3.15.85-.85 1.7-1.35 2.5-1.5.9-.15 1.75-.1 2.6.2 1.5.5 3.15 1.7 5.1 3.5l1.7-1.65c.3-.35.5-.8.4-1.35 0-.5-.35-1.15-1-1.75-.5-.6-1.15-1-1.7-1l-2 1.1-1.8-3.25c1.7-1 3.5-1 5.4 0 .7.4 1.35.85 2 1.5 1.25 1.25 1.9 2.5 1.9 3.85 0 1.2-.5 2.35-1.5 3.4L588.5 815c-.35.35-.4.65-.15.85.1.15.35.25.65.35l-.75 1.8c-.9 0-1.65-.4-2.25-1-1-1-1.15-1.85-.65-2.85zm-2.5-4.35l.35.75c.15.3.35.5.6.8s.5.4.9.5c.35.2.7.3 1 .3.6.1 1.15 0 1.65-.25l2-2c-1-1.1-1.85-1.8-2.5-2.15-.7-.3-1.3-.5-1.8-.5s-1 .2-1.35.6c-.4.4-.65.75-.7 1-.15.35-.15.7-.1 1l-.05-.05zm11.25 11.7l1.1 1.9-1.3 1.3-4.9-4.9 1-1.5 1.9 1.1 14.1-14.15-1.5-1.25 1.25-1.7 3.5 2.5v1.6L594 821.5h.1zm18.55 5c-.5.5-1 .85-1.7 1.15-.7.3-1.5.4-2.3.3-2-.25-4.2-1.6-6.7-4-1 1.5-1.15 3-.5 4.4.2.5.5 1 1 1.5l1.15 1 1 .5c.7.2 1.2.3 1.5.3l-1.1 2.25c-.3 0-.75-.2-1.35-.5-2.3-.9-3.9-2.4-4.9-4.5-.9-1.85-.9-3.8 0-5.75.5-1 1.2-2 2.15-3 1-1 2-1.65 3-2.1 1-.5 2-.7 3-.7 2-.15 3.75.5 5.15 2 1.15 1 1.75 2.25 1.9 3.5.15 1.35-.25 2.5-1.25 3.5l-.05.15zm-2.5-2.15c.5-.5.75-1 .8-1.5 0-.5-.2-1-.65-1.5-.5-.4-1-.7-1.4-.85-.5-.2-1-.25-1.5-.25-1.25.1-2.5.7-3.8 1.85 1.15 1.15 2.1 2 2.9 2.3.75.4 1.4.6 2 .6s1.15-.2 1.6-.65h.05z"/></g><g><path fill="#BF4040" d="M400 768h112v32H400l16-16"/><path fill="#811616" d="M504 801v7.75l8-7.75"/><path fill="#FFF" d="M440.5 790v2.5s0 .2.1.25l1.9.35v2.4h-6.6l-.4-2.4 2.15-.5v-17.8l-2-.2V772h7l8.65 20.25v-17.5l-2.1-.25V772h6.7l.4 2.5-2.15.5v20.5h-5l-8.65-20.25V790zm30.35-6.5c0 .65-.15 1.35-.35 2-.25.7-.7 1.3-1.4 1.85-1.5 1.2-4 1.85-7.5 1.9.3 1.8 1.25 3 2.7 3.5.5.25 1.1.35 1.7.35s1.15 0 1.6-.15c.4-.15.8-.3 1.1-.5.6-.2 1-.5 1.3-.75l.75 2.4c-.25.25-.7.5-1.25.75-2.3.9-4.5 1-6.7.2-2-.7-3.3-2-4-4.1-.5-1-.65-2.2-.65-3.6 0-1.35.2-2.5.6-3.6.5-1 1-2 1.65-2.65 1.35-1.5 3-2.2 5.1-2.2 1.5 0 2.75.35 3.8 1.15 1 .85 1.5 2 1.5 3.3l.05.15zm-3.25.25c0-.65-.15-1.15-.5-1.6-.35-.4-.85-.6-1.5-.6s-1.15.15-1.6.35c-.5.2-.85.5-1.2 1-.8.85-1.25 2.15-1.4 3.9 1.65 0 2.9-.15 3.7-.4.8-.3 1.5-.6 1.85-1 .4-.5.6-1 .6-1.6l.05-.05zm9.4 11.85l-3-14.25h-1.5l-.25-2.1 4.5-.35 2.65 13 3.2-12.5h3.7l3.5 12.5 2.6-10.5h-1.5l-.25-2.15 3.75-.3.75 1.15-3.7 15.5h-4l-3.3-12.2-3.1 12.1h-4l-.05.1z"/></g><g><path fill="#BF4040" d="M272 768h112v32H272l16-16"/><path fill="#811616" d="M376 801v7.75l8-7.75"/><path fill="#FFF" d="M301 794.35l.25-5.75h2.35l.6 3.65c1 .35 2 .5 3 .5 1.9 0 3.25-.6 4-1.9.2-.4.35-1 .35-1.65 0-.7-.2-1.3-.6-1.9-.4-.5-1.1-1-2.1-1.5s-1.9-1-2.85-1.3c-1-.4-1.8-.85-2.6-1.4-.75-.5-1.35-1.2-1.85-2-.5-.75-.7-1.7-.7-2.8s.2-2 .6-2.75c.4-.7 1-1.35 1.65-1.85 1.5-1.1 3.2-1.65 5.25-1.65 2 0 3.9.35 5.75 1l.5 5.85h-2.35l-1.5-3.65c-.7-.25-1.5-.35-2.5-.35-1.1 0-2 .25-2.7.7-.75.5-1.1 1.25-1.1 2.25 0 1.15.5 2 1.7 2.8.5.4 1 .7 1.65 1l2.15.85c.8.4 1.5.8 2.25 1.3.7.5 1.25 1 1.7 1.6.8 1 1.2 2.15 1.2 3.5 0 1.3-.15 2.4-.6 3.25-.5.85-1 1.5-1.8 2-1.4 1.1-3.25 1.65-5.5 1.65s-4.4-.5-6.1-1.3l-.1-.15zm16.7-7.2c0-1.3.15-2.5.5-3.5.5-1 1-1.85 1.65-2.5 1.3-1.5 3-2.2 5-2.2 2.1 0 3.85.7 5.2 2.2 1.4 1.5 2.1 3.5 2.1 6 0 2.65-.75 4.75-2.2 6.25-1.3 1.4-3 2.15-5 2.15-2.1 0-3.85-.8-5.2-2.35-1.35-1.5-2-3.5-2-6.15l-.05.1zm3.2.35c0 1.85.35 3.25 1.1 4.15.7 1 1.7 1.5 2.85 1.5 1.2 0 2.15-.5 2.9-1.5.75-.85 1.1-2.25 1.1-4.15 0-1.85-.35-3.35-1-4.4-.75-1-1.75-1.6-3-1.6s-2.25.6-3 1.7c-.6 1-1 2.5-1 4.3h.05zm13.6-.35c0-1.3.2-2.5.6-3.5.35-1 .9-1.85 1.6-2.5 1.3-1.5 3-2.2 5-2.2 2.1 0 3.85.7 5.2 2.2s2 3.5 2 6c0 2.65-.7 4.75-2.15 6.25-1.35 1.4-3 2.15-5 2.15-2.15 0-3.85-.8-5.2-2.35-1.3-1.5-2-3.5-2-6.15l-.05.1zm3.25.35c0 1.85.35 3.25 1.1 4.15.7 1 1.65 1.5 2.85 1.5 1.15 0 2.15-.5 2.85-1.5.8-.85 1.2-2.25 1.2-4.15 0-1.85-.35-3.35-1-4.4-.8-1-1.75-1.6-3-1.6s-2.25.6-3 1.7c-.65 1-1 2.5-1 4.3zm18.4-7.25c1-.85 2.5-1.3 4-1.3 2.4 0 4 .85 4.7 2.5.25.65.4 1.35.4 2.25v9.35l2 .5v1.9h-6.75l-.4-1.85 2.1-.5v-8.9c0-1-.25-1.7-.75-2.1-.5-.35-1.1-.5-1.8-.5s-1.4.1-2 .4c-.7.35-1.15.6-1.5.9v10.2l2 .5v1.9h-6.65l-.5-1.85 2.2-.5v-11.5l-1.9.1-.35-2 1-.2c.35 0 .75-.1 1.15-.2.4 0 .75-.1 1.1-.15l.9-.2 1 1.25h.05z"/></g><g><path fill="#BF4040" d="M144 768h112v32H144l16-16"/><path fill="#811616" d="M248 801v7.75l8-7.75"/><path fill="#FFF" d="M182.15 794.35l.2-5.75h2.4l.6 3.65c1 .35 2 .5 3 .5 1.9 0 3.2-.6 4-1.9.2-.4.3-1 .3-1.65 0-.7-.2-1.3-.6-1.9-.4-.5-1-1-2-1.5s-2-1-2.9-1.3c-1-.4-1.8-.85-2.5-1.4-.8-.5-1.4-1.2-1.9-2-.5-.75-.75-1.7-.75-2.8s.15-2 .5-2.75c.5-.7 1-1.35 1.65-1.85 1.5-1.1 3.2-1.65 5.25-1.65 2 0 3.9.35 5.75 1l.5 5.85h-2.35l-1.5-3.65c-.7-.25-1.5-.35-2.6-.35-1 0-1.9.25-2.6.7-.7.5-1 1.25-1 2.25 0 1.15.5 2 1.65 2.8.5.4 1 .7 1.65 1l2.1.85c.85.4 1.6.8 2.3 1.3s1.25 1 1.7 1.6c.8 1 1.2 2.15 1.2 3.5 0 1.3-.2 2.4-.65 3.25-.4.85-1 1.5-1.75 2-1.4 1.1-3.25 1.65-5.5 1.65s-4.4-.5-6.1-1.3l-.05-.15zm16.7-7.2c0-1.3.15-2.5.5-3.5.5-1 1-1.85 1.65-2.5 1.3-1.5 3-2.2 5-2.2 2.1 0 3.85.7 5.2 2.2 1.35 1.5 2 3.5 2 6 0 2.65-.7 4.75-2.15 6.25-1.25 1.4-3 2.15-5 2.15s-3.8-.8-5.15-2.35c-1.35-1.5-2-3.5-2-6.15l-.05.1zm3.2.35c0 1.85.4 3.25 1.15 4.15.7 1 1.65 1.5 2.85 1.5 1.2 0 2.15-.5 2.9-1.5.75-.85 1.1-2.25 1.1-4.15 0-1.85-.35-3.35-1-4.4-.75-1-1.75-1.6-3-1.6s-2.25.6-3 1.7c-.6 1-1 2.5-1 4.3zm18.15 5.6l2.1.5v1.9h-6.9l-.4-1.85 2.1-.5v-20l-1.9.2-.35-2 4.25-.8 1.1 1.25v21.35-.05zm14.3 1.4c-1 .75-2.15 1.15-3.35 1.15s-2.2-.2-3-.6c-.85-.35-1.5-.85-2.1-1.6-1.2-1.5-1.85-3.5-1.85-5.9 0-3.1.85-5.35 2.5-6.85 1.3-1.1 2.9-1.7 4.8-1.7.9 0 1.8.15 2.65.5v-6.3l-2 .15-.25-2 4.25-.8 1 1.25v20.7c0 .5.2.7.5.7.2 0 .5-.1.75-.25l.75 1.75c-.7.6-1.5.9-2.5.9s-1.75-.4-2.1-1.15l-.05.05zm-.35-2.5v-9.65c-.2-.2-.5-.35-1-.5-.5-.25-1-.35-1.5-.35s-1 .1-1.5.3c-.5.15-.9.5-1.3.9-1 1-1.5 2.5-1.5 4.6 0 2 .5 3.5 1.3 4.4.7.9 1.65 1.35 2.8 1.35 1 0 2-.3 2.65-1l.05-.05z"/></g><g><path fill="#BF4040" d="M16 768h112v32H16l16-16"/><path fill="#811616" d="M120 801v7.75l8-7.75"/><path fill="#FFF" d="M57.15 794.35l.2-5.75h2.4l.6 3.65c1 .35 2 .5 3 .5 1.9 0 3.2-.6 4-1.9.2-.4.3-1 .3-1.65 0-.7-.2-1.3-.6-1.9-.4-.5-1-1-2-1.5s-2-1-2.9-1.3c-1-.4-1.8-.85-2.5-1.4-.8-.5-1.5-1.2-1.9-2-.5-.75-.75-1.7-.75-2.8s.15-2 .5-2.75c.5-.7 1-1.35 1.65-1.85 1.5-1.1 3.2-1.65 5.25-1.65 2 0 3.9.35 5.75 1l.5 5.85H68.3l-1.5-3.65c-.7-.25-1.5-.35-2.6-.35-1 0-1.9.25-2.6.7-.7.5-1 1.25-1 2.25 0 1.15.5 2 1.65 2.8.5.4 1 .7 1.65 1l2.1.85 2.3 1.3c.7.5 1.25 1 1.7 1.6.8 1 1.2 2.15 1.2 3.5 0 1.3-.2 2.4-.65 3.25-.4.85-1 1.5-1.75 2-1.4 1.1-3.25 1.65-5.5 1.65s-4.4-.5-6.1-1.3l-.05-.15zm25.6-.25c-1 1-2.25 1.5-3.8 1.5-1.6 0-2.85-.35-3.75-1.25-1-.85-1.5-1.85-1.5-3 0-1.25.3-2.2.8-3 .5-.65 1.2-1.2 2-1.6 1.35-.7 3.4-1 6-1.1v-2.5c0-.4-.15-.8-.5-1.15-.5-.4-1.15-.6-2-.6s-1.5.2-1.9.5l-.7 2.3-3.5-1.1c.5-1.85 1.75-3.15 3.8-3.8.7-.2 1.5-.35 2.5-.35 1.7 0 3 .4 4 1.3s1.4 2 1.4 3.5v8.65c0 .5.2.7.5.7.15 0 .4-.1.7-.25l.75 1.75c-.65.6-1.5.9-2.3.9-1.3 0-2.1-.5-2.5-1.5v.1zm-4.8-1.35c.2.15.5.25.7.3.3.1.6.15 1 .15.25 0 .6 0 1-.2l.85-.6c.5-.35.9-.8 1-1.35v-2.9c-1.5 0-2.5.15-3.25.4-.7.2-1.25.5-1.6.9-.4.35-.6.85-.6 1.4 0 .5.15 1 .3 1.25.15.35.4.5.65.75l-.05-.1zm16.2.35l2.15.5v1.9h-7l-.35-1.85 2.1-.5v-20l-2 .2-.3-2 4.25-.8 1.15 1.25v21.35-.05zm16.65-9.6c0 .65-.15 1.35-.4 2-.2.7-.7 1.3-1.35 1.85-1.5 1.2-4 1.85-7.5 1.9.35 1.8 1.3 3 2.75 3.5.5.25 1.1.35 1.7.35s1.1 0 1.5-.15c.5-.15.8-.3 1.15-.5.6-.2 1-.5 1.3-.75l.7 2.4c-.25.25-.7.5-1.3.75-2.25.9-4.5 1-6.65.2-2-.7-3.35-2-4.1-4.1-.35-1-.5-2.2-.5-3.6 0-1.35.15-2.5.5-3.6.5-1 1-2 1.7-2.65 1.35-1.5 3-2.2 5.1-2.2 1.5 0 2.7.35 3.7 1.15 1 .85 1.6 2 1.6 3.3l.1.15zm-3.25.25c0-.65-.1-1.15-.5-1.6-.3-.4-.8-.6-1.5-.6s-1.15.15-1.5.35c-.5.2-.9.5-1.3 1-.75.85-1.25 2.15-1.4 3.9 1.7 0 2.9-.15 3.75-.4.85-.3 1.5-.6 1.9-1 .5-.5.65-1 .65-1.6l-.1-.05z"/></g><g><path d="M899.68 760.12l-.18-1.28 1.1-.23v-9.48l-1.08-.1v-1.34h7.67l.37 3.4h-1.12l-.72-1.85h-3.35V753h2.85v1.56h-2.85v3.98l2.92.4-.1 1.18h-5.52zM910.93 752.22c.48-.55 1.1-.83 1.88-.83.53 0 .98.13 1.35.4s.63.58.8.96l-1.77.9-.56-.86c-.4 0-.77.17-1.1.52-.33.35-.5.8-.5 1.38v3.9c0 .04.1.08.3.12l2.04.43v.97h-4.86l-.2-.97 1.1-.25v-6.07h-1l-.15-1.06c.67-.1 1.38-.23 2.12-.38l.56.82zM918.33 758.86l1.06.3v.96h-3.6l-.2-.97 1.1-.25v-6.12l-.98.07-.18-1.08 2.22-.4.57.58v6.9zm-2.2-10.73c0-.3.1-.57.33-.8.2-.2.48-.3.8-.3.3 0 .57.1.78.33.22.23.33.5.33.8s-.1.55-.33.77c-.2.2-.48.32-.8.32-.3 0-.57-.1-.78-.32-.22-.22-.33-.48-.33-.8zM925.9 759.6c-.57.4-1.17.6-1.8.6s-1.16-.1-1.6-.3c-.43-.2-.8-.5-1.1-.87-.67-.8-1-1.84-1-3.14 0-1.64.44-2.85 1.33-3.63.7-.6 1.53-.9 2.52-.9.5 0 1 .1 1.44.3v-3.35l-1.03.07-.16-1.1 2.26-.37.55.6v11c0 .24.1.37.27.37.08 0 .2-.04.37-.13l.4.96c-.37.3-.82.46-1.35.46-.54 0-.9-.2-1.1-.6zm-.2-1.35v-5.08c-.12-.1-.3-.2-.56-.3s-.52-.15-.78-.15-.52.05-.77.14-.5.25-.72.5c-.5.52-.77 1.33-.77 2.42 0 1.04.23 1.82.68 2.34.38.47.87.7 1.47.7s1.08-.2 1.44-.57zM930.8 757.33c-.94-.6-1.4-1.5-1.4-2.64 0-.97.33-1.77 1-2.4.63-.6 1.4-.93 2.32-.93s1.7.27 2.35.8l1.78-.9.38.05.18 1.5-1.6.2c.28.52.42 1.06.42 1.62s-.1 1.04-.3 1.43c-.2.4-.45.73-.78 1-.63.52-1.4.78-2.34.78-.3 0-.56-.02-.8-.07l-.44.7.07.3.78.13c.4.06.86.15 1.37.27.52.12.96.27 1.33.46.36.18.65.38.87.6.36.4.54.9.54 1.5s-.1 1.1-.3 1.5c-.23.4-.5.76-.86 1.03-.7.54-1.57.8-2.6.8-1.07 0-1.95-.22-2.62-.67-.73-.5-1.1-1.17-1.1-2 0-1.14.5-1.95 1.5-2.44-.3-.24-.44-.62-.44-1.14 0-.53.24-1.02.7-1.5zm4.34 4.76c0-.4-.16-.65-.5-.8-.32-.15-.78-.3-1.38-.4-.6-.14-1.05-.25-1.38-.35-.85.35-1.27.88-1.27 1.6 0 .38.23.7.67.98.4.24.94.36 1.6.36.62 0 1.16-.15 1.6-.43.44-.27.67-.6.67-.98zm-2.4-9.38c-.5.03-.9.22-1.2.56s-.43.74-.43 1.18c0 .44.06.78.15 1.02.1.24.23.43.38.57.3.3.7.46 1.18.46.5 0 .9-.16 1.23-.48.32-.32.48-.8.48-1.4 0-.62-.16-1.08-.5-1.4s-.74-.5-1.2-.5h-.07zM944.83 753.75c0 .37-.07.73-.2 1.1-.12.34-.36.66-.72.95-.8.65-2.14 1-4 1 .2.96.7 1.58 1.47 1.88.28.1.58.16.9.16s.6-.02.83-.08c.23-.05.42-.1.6-.18.32-.16.54-.3.68-.44l.4 1.26c-.14.14-.36.27-.67.4-1.2.5-2.37.53-3.52.13-1.05-.38-1.77-1.1-2.16-2.18-.2-.54-.3-1.18-.3-1.9 0-.73.1-1.37.32-1.93.2-.56.5-1.02.86-1.4.72-.76 1.62-1.15 2.7-1.15.8 0 1.46.2 2 .63.55.45.83 1.03.83 1.75zm-1.7.14c0-.34-.1-.62-.28-.83-.2-.22-.45-.33-.8-.33s-.62.06-.85.17c-.23.1-.45.28-.64.5-.42.48-.67 1.18-.74 2.08.88 0 1.53-.07 1.96-.2.44-.15.77-.33 1-.55.22-.22.34-.5.34-.84zM961.94 759.6c-.45.39-1.06.58-1.83.58-.76 0-1.6-.4-2.55-1.2-.88.8-1.94 1.22-3.2 1.22-1.15 0-2.1-.36-2.86-1.08-.76-.7-1.13-1.57-1.13-2.6 0-1.3.76-2.52 2.27-3.72-.65-1.1-.97-2.04-.97-2.8 0-.9.27-1.6.82-2.15.58-.6 1.3-.9 2.14-.9.85 0 1.5.25 2 .73.47.47.7 1.07.7 1.8 0 1.1-.75 2.3-2.3 3.6.53.7 1.06 1.37 1.6 2l.95 1.12c.3-.65.53-1.3.67-1.98h-.8l-.3-1.26h2.8l.2.25c-.25 1.58-.7 2.92-1.3 4.02l-.15.24c.72.74 1.18 1.14 1.4 1.2.04 0 .1-.05.2-.13l.35-.24.52-.36.74 1.66zm-5.54-1.78c-1-1.17-1.98-2.42-2.95-3.77-.37.36-.67.73-.88 1.1-.22.4-.33.86-.33 1.43s.2 1.06.6 1.46c.4.4.96.6 1.65.6.7 0 1.32-.27 1.9-.82zm-2.16-5.92c.94-.86 1.4-1.66 1.4-2.42 0-.38-.1-.67-.3-.87-.22-.2-.5-.3-.86-.3-.35 0-.62.15-.82.42-.2.27-.28.57-.28.9 0 .58.28 1.34.86 2.28zM967.25 760.12l-.18-1.28 1.1-.23v-9.48l-1.08-.1v-1.34h7.66l.38 3.4h-1.12l-.72-1.85h-3.35V753h2.85v1.56h-2.85v3.98l2.92.4-.1 1.18h-5.52zM978.5 752.22c.48-.55 1.1-.83 1.88-.83.52 0 .97.13 1.34.4s.64.58.82.96l-1.8.9-.54-.86c-.4 0-.78.17-1.1.52-.34.35-.5.8-.5 1.38v3.9c0 .04.1.08.3.12l2.03.43v.97h-4.86l-.2-.97 1.1-.25v-6.07h-1l-.15-1.06c.67-.1 1.38-.23 2.13-.38l.55.82zM989.83 753.75c0 .37-.07.73-.2 1.1-.12.34-.36.66-.72.95-.8.65-2.14 1-4 1 .2.96.7 1.58 1.47 1.88.28.1.58.16.9.16s.6-.02.83-.08c.23-.05.42-.1.6-.18.32-.16.54-.3.68-.44l.4 1.26c-.14.14-.36.27-.67.4-1.2.5-2.37.53-3.52.13-1.05-.38-1.77-1.1-2.16-2.18-.2-.54-.3-1.18-.3-1.9 0-.73.1-1.37.32-1.93.2-.56.5-1.02.86-1.4.72-.76 1.62-1.15 2.7-1.15.8 0 1.46.2 2 .63.55.45.83 1.03.83 1.75zm-1.72.14c0-.34-.08-.62-.26-.83-.18-.22-.44-.33-.78-.33s-.63.06-.86.17c-.24.1-.45.28-.64.5-.42.48-.67 1.18-.74 2.08.88 0 1.53-.07 1.96-.2.44-.15.76-.33 1-.55.22-.22.34-.5.34-.84zM997.82 753.75c0 .37-.07.73-.2 1.1-.12.34-.36.66-.72.95-.82.65-2.15 1-4 1 .2.96.68 1.58 1.46 1.88.28.1.58.16.9.16s.6-.02.83-.08c.22-.05.42-.1.58-.18.33-.16.56-.3.7-.44l.38 1.26c-.13.14-.35.27-.66.4-1.2.5-2.38.53-3.53.13-1.04-.38-1.76-1.1-2.16-2.18-.2-.54-.3-1.18-.3-1.9 0-.73.1-1.37.33-1.93.2-.56.5-1.02.86-1.4.7-.76 1.6-1.15 2.7-1.15.78 0 1.45.2 2 .63.54.45.82 1.03.82 1.75zm-1.7.14c0-.34-.1-.62-.28-.83-.18-.22-.44-.33-.8-.33s-.62.06-.85.17c-.24.1-.46.28-.65.5-.42.48-.67 1.18-.74 2.08.9 0 1.54-.07 1.97-.2.44-.15.77-.33 1-.55.22-.22.34-.5.34-.84zM1003.36 752.74c-.94-.02-1.88-.03-2.83-.03l-.25 1.4h-1.04v-2.73h6.06v1.4l-4.14 6h2.87l.25-1.47h1.02v2.82h-6.06v-1.38l4.12-6zM1013.42 753.75c0 .37-.06.73-.18 1.1-.13.34-.37.66-.73.95-.8.65-2.14 1-4 1 .2.96.7 1.58 1.47 1.88.27.1.57.16.9.16s.6-.02.83-.08c.22-.05.42-.1.6-.18.3-.16.54-.3.67-.44l.4 1.26c-.13.14-.35.27-.67.4-1.2.5-2.37.53-3.52.13-1.05-.38-1.77-1.1-2.16-2.18-.2-.54-.3-1.18-.3-1.9 0-.73.1-1.37.3-1.93.23-.56.52-1.02.88-1.4.72-.76 1.62-1.15 2.7-1.15.8 0 1.45.2 2 .63.55.45.82 1.03.82 1.75zm-1.7.14c0-.34-.1-.62-.28-.83-.18-.22-.44-.33-.78-.33s-.63.06-.86.17c-.24.1-.45.28-.64.5-.42.48-.67 1.18-.74 2.08.87 0 1.53-.07 1.96-.2.43-.15.76-.33 1-.55.22-.22.33-.5.33-.84zM1017.27 752.22c.48-.55 1.1-.83 1.88-.83.52 0 .97.13 1.34.4s.63.58.8.96l-1.78.9-.55-.86c-.4 0-.78.17-1.1.52-.34.35-.5.8-.5 1.38v3.9c0 .04.1.08.3.12l2.03.43v.97h-4.86l-.2-.97 1.1-.25v-6.07h-1l-.15-1.06c.66-.1 1.37-.23 2.12-.38l.55.82z"/><circle cx="960" cy="698.9" r="45" fill="#3FA9F5" stroke="#FFF" stroke-width="2" stroke-miterlimit="10"/><path fill="#A0D7F9" stroke="#FFF" stroke-width=".94" stroke-miterlimit="10" d="M947.03 733.9l3.33-10.58-9.63 2.16-.84-3.7 11.77-2.64 5.55-17.65-18.15 4.03-3.6 11.43-3.64-1.14 2.94-9.33-10.84 2.4-.83-3.7 10.87-2.42-6.7-7.23 2.8-2.57 8.2 8.85 18.1-4.04-12.6-13.66-11.73 2.6-.83-3.7 9.6-2.13-7.53-8.14 2.8-2.57 7.54 8.16 2.94-9.4 3.64 1.14-3.6 11.5 12.56 13.6 5.56-17.7-8.12-8.82 2.8-2.57 6.64 7.22 3.32-10.57 3.63 1.14-3.33 10.58 9.63-2.16.84 3.7-11.77 2.64-5.55 17.65 18.15-4.03 3.6-11.43 3.64 1.14-2.94 9.33 10.84-2.4.83 3.7-10.87 2.4 6.7 7.25-2.8 2.57-8.2-8.85-18.1 4.04 12.6 13.66 11.73-2.6.83 3.7-9.6 2.13 7.53 8.14-2.8 2.57-7.54-8.16-2.94 9.4-3.64-1.14 3.6-11.5-12.56-13.6-5.56 17.7 8.12 8.82-2.8 2.57-6.64-7.22-3.32 10.57z"/></g><g><path d="M805.93 759.76l-.2-1.5L807 758v-11.07l-1.26-.1v-1.58h8.95l.43 3.94h-1.3l-.84-2.15h-3.92v4.4h3.32v1.82h-3.32v4.64l3.4.5-.13 1.36h-6.42zM819.06 750.54c.56-.65 1.28-.97 2.18-.97.62 0 1.14.15 1.56.46.43.3.75.7.96 1.14l-2.08 1.05-.65-1c-.48 0-.9.2-1.28.6-.4.4-.6.94-.6 1.6v4.55c0 .06.13.1.37.15l2.37.5v1.13h-5.68l-.25-1.13 1.3-.3v-7.07h-1.15l-.2-1.24c.8-.12 1.62-.26 2.5-.43l.64.97zM827.7 758.3l1.22.32v1.14h-4.2l-.22-1.14 1.3-.3v-7.13l-1.16.07-.2-1.26 2.58-.45.67.67v8.07zm-2.58-12.53c0-.36.13-.67.38-.92s.56-.38.93-.38c.36 0 .67.13.92.4s.38.57.38.92-.13.64-.38.9c-.25.25-.56.37-.92.37-.37 0-.68-.12-.93-.38s-.38-.57-.38-.93zM836.5 759.15c-.65.46-1.35.7-2.08.7-.74 0-1.36-.13-1.86-.37s-.94-.57-1.3-1c-.77-.93-1.16-2.15-1.16-3.66 0-1.9.52-3.3 1.56-4.22.8-.7 1.77-1.05 2.94-1.05.58 0 1.14.1 1.68.34v-3.92l-1.2.08-.2-1.26 2.64-.44.65.72v12.8c0 .3.1.45.3.45.1 0 .23-.05.43-.15l.46 1.1c-.43.38-.96.56-1.57.56-.63 0-1.06-.23-1.3-.7zm-.23-1.58v-5.92c-.12-.13-.33-.24-.64-.36-.3-.12-.6-.17-.9-.17s-.62.05-.9.15c-.3.1-.58.3-.83.58-.6.62-.9 1.56-.9 2.84 0 1.2.26 2.1.77 2.72.45.55 1.03.82 1.73.82s1.25-.22 1.67-.67zM842.22 756.5c-1.08-.7-1.62-1.74-1.62-3.1 0-1.1.4-2.03 1.16-2.76.74-.73 1.65-1.1 2.72-1.1s1.98.32 2.74.93l2.08-1.05.44.07.2 1.73-1.88.23c.33.62.5 1.25.5 1.9s-.1 1.2-.35 1.67c-.22.46-.52.85-.9 1.15-.74.62-1.65.93-2.73.93-.35 0-.66-.02-.92-.08l-.53.82.1.36.9.14c.45.06.98.16 1.6.3.6.14 1.1.32 1.53.54.43.2.77.45 1.02.7.42.46.63 1.04.63 1.74s-.13 1.3-.38 1.77-.58.86-1 1.18c-.8.63-1.82.95-3 .95-1.27 0-2.3-.27-3.08-.8-.85-.57-1.28-1.35-1.28-2.33 0-1.32.58-2.26 1.75-2.84-.33-.28-.5-.72-.5-1.33s.27-1.18.82-1.73zm5.08 5.56c0-.44-.2-.75-.58-.93-.38-.17-.92-.33-1.6-.48-.7-.15-1.24-.28-1.62-.4-1 .42-1.5 1.03-1.5 1.86 0 .47.27.86.8 1.16.46.28 1.08.42 1.84.42.74 0 1.36-.16 1.86-.48.53-.32.8-.7.8-1.14zm-2.8-10.93c-.6.02-1.05.24-1.4.65-.33.4-.5.86-.5 1.37s.05.9.16 1.2c.12.27.26.5.44.66.35.36.8.53 1.38.53.57 0 1.04-.18 1.42-.56s.57-.93.57-1.64-.2-1.26-.6-1.64c-.4-.4-.87-.58-1.4-.58h-.08zM858.6 752.32c0 .44-.07.86-.22 1.27-.15.4-.43.78-.85 1.12-.95.75-2.5 1.14-4.66 1.17.22 1.1.8 1.83 1.7 2.18.32.12.67.18 1.05.18s.7-.03.96-.1c.27-.05.5-.13.7-.2.37-.2.64-.36.8-.5l.45 1.46c-.15.15-.4.3-.77.46-1.4.57-2.77.62-4.12.14-1.22-.43-2.06-1.28-2.52-2.54-.24-.63-.35-1.37-.35-2.2s.12-1.6.37-2.26c.26-.65.6-1.2 1-1.63.85-.9 1.9-1.35 3.16-1.35.93 0 1.7.24 2.33.73.65.52.97 1.2.97 2.04zm-2 .17c0-.4-.1-.72-.3-.98s-.53-.37-.92-.37c-.4 0-.74.06-1 .18-.3.13-.53.32-.76.57-.5.57-.77 1.4-.86 2.44 1.02 0 1.8-.08 2.3-.24.5-.17.88-.38 1.15-.63.27-.26.4-.6.4-.98z"/><circle cx="832.03" cy="697.9" r="45" fill="#3FA9F5" stroke="#FFF" stroke-width="2" stroke-miterlimit="10"/><path fill="#A0D7F9" stroke="#FFF" stroke-width=".94" stroke-miterlimit="10" d="M819.06 732.9l3.33-10.58-9.64 2.16-.83-3.7 11.77-2.64 5.55-17.65-18.15 4.03-3.6 11.43-3.64-1.14 2.94-9.33-10.83 2.4-.83-3.7L806 701.8l-6.7-7.23 2.8-2.57 8.2 8.85 18.1-4.04-12.6-13.66-11.73 2.6-.82-3.7 9.58-2.13-7.52-8.14 2.8-2.57 7.54 8.16 2.94-9.4 3.64 1.14-3.6 11.5 12.55 13.6 5.56-17.7-8.12-8.82 2.82-2.57 6.63 7.22 3.32-10.57 3.64 1.14-3.32 10.58 9.62-2.16.84 3.7-11.78 2.64-5.54 17.65 18.14-4.03 3.6-11.43 3.65 1.14-2.94 9.33 10.84-2.4.83 3.7-10.87 2.4 6.7 7.25-2.8 2.57-8.2-8.85-18.1 4.04 12.6 13.66 11.74-2.6.82 3.7-9.58 2.13 7.52 8.14-2.8 2.57-7.54-8.16-2.93 9.4-3.65-1.14 3.6-11.5-12.56-13.6-5.57 17.7 8.12 8.82-2.8 2.57-6.63-7.22-3.32 10.57z"/></g><g><radialGradient id="a" cx="748" cy="177.83" r="40.51" gradientTransform="matrix(1 0 0 -1 -50 885)" gradientUnits="userSpaceOnUse"><stop offset="0" stop-color="#43CDEE"/><stop offset="1" stop-color="#43CDEE" stop-opacity=".2"/></radialGradient><path fill="url(#a)" stroke="#0DA0C2" stroke-width="2.5" stroke-miterlimit="10" d="M747 669.6c.3-2.2-1.3-4.15-3.5-4.4 0 0-33.7-3.4-35.9-3.5l-8-.1c-2.2 0-5.75.3-7.9.8l-21 4.75c-2.2.5-5 1.5-6.3 2.4s-2.15 3.4-1.9 5.6l5.2 50.3c.15 2.2 2 4.5 4.1 5.2l47.1 14.5c2.15.4 4.85-.7 6-2.5l14.3-21.45c1.25-1.75 2.5-5 2.7-7.2l5.15-44.35-.05-.05z"/><path fill="#0DA0C2" d="M672.83 725.7c-.46-.06.25-.93 1.56-1.93l19.37-14.63c1.32-1 2.4-3.16 2.43-4.8l.43-34.84c.02-1.65.34-3.04.7-3.08.37-.05.7 1.26.72 2.9l.57 34.5c.03 1.66 1.36 3.32 2.97 3.7l29.3 6.8c1.62.37 2.67.85 2.35 1.05s-1.9.12-3.53-.2l-28.77-5.6c-1.62-.3-4.06.2-5.42 1.14l-19.4 13.43c-1.35.94-2.84 1.65-3.3 1.58z"/><path fill="#F2F2F2" d="M721.83 741.82c-.25.75-.5.5-.5-.65l1.27-58.62c0-1.15-.9-2.2-2-2.35l-52.15-7.5c-1.15-.15-1.35-.4-.5-.5.9-.2 2.5-.25 3.6-.15l51.8 5.75c1 .15 2.75-.2 3.7-.75l15.35-8.7c.9-.5 1.7-.7 1.7-.35s-.75 1-1.7 1.7l-15 10c-.9.65-1.7 2-1.75 3.15l-3.37 55.62c0 1-.25 2.5-.5 3.35h.05z" opacity=".5"/><path d="M672.05 759.75l-.2-1.5 1.27-.26V746.9l-1.26-.1v-1.57h8.94l.45 3.94h-1.3l-.85-2.15h-3.9v4.4h3.3v1.82h-3.3v4.64l3.4.5-.13 1.36h-6.42zM685.17 750.54c.56-.65 1.3-.97 2.2-.97.6 0 1.12.15 1.55.46.43.3.75.7.96 1.14l-2.08 1.05-.65-1c-.48 0-.9.2-1.28.6-.4.4-.6.94-.6 1.6v4.55c0 .06.13.1.37.15l2.37.5v1.13h-5.66l-.25-1.13 1.3-.3v-7.07h-1.17l-.18-1.24c.78-.12 1.6-.26 2.47-.43l.65.97zM698.38 752.32c0 .43-.07.86-.22 1.27-.15.4-.43.78-.85 1.1-.94.77-2.5 1.16-4.65 1.2.22 1.1.8 1.83 1.7 2.18.32.12.67.18 1.05.18s.7-.03.96-.1c.27-.05.5-.13.7-.2.38-.2.64-.36.8-.52l.46 1.47c-.16.17-.42.32-.78.48-1.4.57-2.77.62-4.1.14-1.23-.43-2.07-1.28-2.54-2.54-.23-.63-.35-1.37-.35-2.2s.12-1.6.38-2.26c.25-.65.58-1.2 1-1.63.84-.9 1.9-1.35 3.15-1.35.93 0 1.7.24 2.33.73.66.52.98 1.2.98 2.04zm-2 .17c0-.4-.1-.73-.3-.98s-.52-.38-.92-.38-.74.07-1 .2c-.28.12-.53.3-.76.56-.5.57-.77 1.4-.86 2.44 1.03 0 1.8-.08 2.3-.25.5-.17.88-.38 1.15-.63.25-.26.4-.6.4-.98zM707.7 752.32c0 .43-.07.86-.22 1.27-.14.4-.43.78-.85 1.1-.95.77-2.5 1.16-4.66 1.2.23 1.1.8 1.83 1.7 2.18.32.12.68.18 1.05.18s.7-.03.97-.1c.25-.05.5-.13.68-.2.38-.2.65-.36.8-.52l.46 1.47c-.15.17-.4.32-.78.48-1.4.57-2.77.62-4.1.14-1.23-.43-2.07-1.28-2.53-2.54-.24-.63-.36-1.37-.36-2.2s.13-1.6.38-2.26c.25-.65.6-1.2 1-1.63.85-.9 1.9-1.35 3.16-1.35.93 0 1.7.24 2.34.73.64.52.97 1.2.97 2.04zm-2 .17c0-.4-.1-.73-.3-.98s-.52-.38-.92-.38-.73.07-1 .2c-.28.12-.53.3-.75.56-.5.57-.78 1.4-.86 2.44 1.02 0 1.78-.08 2.3-.25.5-.17.88-.38 1.14-.63.28-.26.4-.6.4-.98zM714.17 751.14c-1.1-.02-2.2-.04-3.3-.04l-.3 1.64h-1.2v-3.2h7.07v1.65l-4.83 6.98h3.35l.3-1.72h1.2v3.3h-7.1v-1.62l4.82-7zM725.9 752.32c0 .43-.06.86-.2 1.27-.16.4-.44.78-.86 1.1-.95.77-2.5 1.16-4.66 1.2.22 1.1.8 1.83 1.7 2.18.32.12.67.18 1.05.18s.7-.03.97-.1c.26-.05.5-.13.7-.2.37-.2.63-.36.8-.52l.45 1.47c-.16.17-.42.32-.78.48-1.4.57-2.77.62-4.1.14-1.23-.43-2.07-1.28-2.54-2.54-.23-.63-.35-1.37-.35-2.2s.12-1.6.38-2.26c.25-.65.58-1.2 1-1.63.84-.9 1.9-1.35 3.15-1.35.94 0 1.7.24 2.34.73.65.52.97 1.2.97 2.04zm-1.98.17c0-.4-.1-.73-.32-.98s-.5-.38-.9-.38-.75.07-1.02.2c-.27.12-.52.3-.75.56-.5.57-.77 1.4-.86 2.44 1.03 0 1.8-.08 2.3-.25.5-.17.88-.38 1.15-.63.26-.26.4-.6.4-.98zM730.4 750.54c.57-.65 1.3-.97 2.2-.97.6 0 1.13.15 1.55.46.43.3.75.7.96 1.14l-2.07 1.05-.65-1c-.48 0-.9.2-1.28.6-.4.4-.6.94-.6 1.6v4.55c0 .06.13.1.37.15l2.37.5v1.13h-5.67l-.25-1.13 1.3-.3v-7.07h-1.15l-.2-1.24c.8-.12 1.62-.26 2.5-.43l.64.97z"/></g><g><path d="M525.7 714.4c-1.53 0-2.95-.82-3.7-2.17s-.72-3 .1-4.3l32.44-52.55c.77-1.25 2.14-2.02 3.6-2.02s2.86.77 3.63 2.02l32.44 52.55c.82 1.3.86 2.95.1 4.3-.74 1.35-2.16 2.18-3.7 2.18h-64.9z"/><path fill="#FFE200" stroke="#FFF" stroke-miterlimit="10" d="M558.15 657.45L590.6 710h-64.9z"/><path stroke="#FFF" stroke-width=".5" stroke-miterlimit="10" d="M564.8 679.6l-4.1 18.7 4.02.45c-2.83 3.2-5.56 6.17-8.43 9.32-1.25-3.9-2.5-7.62-3.7-11.55l3.76.92 1.67-9.28c-4.1 2.34-12.2 6.66-12.2 6.66 2.85-9.67 5.6-19.37 8.45-29.3 2.3 1.78 4.74 2.7 7.72 2.5l-7.58 16.85 10.38-5.28z"/><linearGradient id="b" x1="605.15" x2="605.15" y1="743.11" y2="671.73" gradientUnits="userSpaceOnUse"><stop offset="0" stop-color="#1088D2"/><stop offset="1" stop-color="#2B3797"/></linearGradient><path fill="url(#b)" fill-rule="evenodd" d="M607.06 671.73c-2.12.1-6.36 6.17-6.36 13.18 0 7.03.85 14.25.85 14.25s-1.6 4.08-4.46 4.18c-2.87.1-2.76-3.35-2.76-3.35l1.06-3.97s-15.7 12.56-15.06 23.87c.53 13.18 16.44 23.44 25.66 23.23 13.36-.2 23.96-14.55 23.96-25.53.74-18-24.07-26.8-22.9-45.84z" clip-rule="evenodd"/><linearGradient id="c" x1="604.9" x2="604.9" y1="743.19" y2="697.9" gradientUnits="userSpaceOnUse"><stop offset="0" stop-color="#1088D2"/><stop offset="1" stop-color="#9CF6FE"/></linearGradient><path fill="url(#c)" fill-rule="evenodd" d="M606.56 743.2c-7.8-.12-14.3-8.76-15.6-12.17l-.2-.53.57.04c.38.04.74.05 1.07.05 1.45 0 2.4-.3 2.9-.93.83-1.07.35-3.1-.16-5.27-.62-2.6-1.32-5.56.1-7.72 1.42-2.94 3-4.3 4.65-5.75 2.38-2.07 5.08-4.42 8.02-12.4l.24-.63.4.56c6.26 9.08 3.12 12.82.35 16.12-2.04 2.44-3.82 4.55-1.84 8.55 1.42 1.13 2.7 1.7 3.77 1.7.85 0 1.6-.36 2.2-1.08 1.17-1.36 1.55-3.67 1.45-4.3-.02-.1-.05-.28.08-.43l.1-.12h.2c.17 0 .3.12.33.16.65.74 4.2 8.32 3.8 12.1-.42 4.05-4.6 12.03-12.3 12.03h-.14z" clip-rule="evenodd"/><path fill="#FFF" d="M608.26 698.67c10.7 15.5-6.47 14.75-1.5 24.7 1.66 1.3 3 1.82 4.07 1.82 3.3 0 4.16-4.8 4-5.8-.02-.1 0-.15.02-.15.36 0 4.2 8.06 3.8 11.86-.42 4.06-4.6 11.73-11.94 11.73h-.14c-7.42-.1-13.9-8.27-15.27-11.93.4.03.76.05 1.1.05 8.05 0-.02-9.25 3.13-14.07 3.5-7.23 7.74-4.7 12.73-18.2m-.2-1.55l-.47 1.3c-2.92 7.88-5.6 10.2-7.94 12.23-1.7 1.47-3.28 2.85-4.75 5.87-1.45 2.28-.74 5.3-.1 7.95.48 2.08.94 4.03.2 4.96-.4.53-1.3.8-2.6.8-.32 0-.67-.02-1.04-.05l-1.13-.1.4 1.05c1.3 3.48 7.97 12.28 15.92 12.4h.16c7.94 0 12.22-8.2 12.66-12.37.4-3.94-3.2-11.58-3.9-12.35-.18-.2-.38-.3-.6-.3h-.34l-.23.26c-.24.26-.2.6-.18.7.1.53-.25 2.73-1.36 4.02-.55.64-1.18.95-1.93.95-.98 0-2.16-.53-3.5-1.57-1.8-3.74-.2-5.67 1.85-8.1 2.86-3.4 6.1-7.24-.34-16.54l-.78-1.13z"/><g><path d="M538.16 757.97v-11.05l-1.26-.12v-1.56h3.97c2.28 0 4.1.6 5.44 1.83 1.4 1.25 2.1 3.02 2.1 5.33 0 2.3-.68 4.12-2 5.42-1.33 1.3-3.14 1.93-5.45 1.93h-3.86l-.22-1.5 1.28-.28zm2.25 0c3.86 0 5.78-1.86 5.78-5.6 0-1.67-.5-3-1.5-3.95-1-.93-2.3-1.4-3.94-1.4l-.5.03v10.9l.16.02zM556.47 758.9c-.66.62-1.44.94-2.35.94-1.54 0-2.57-.63-3.1-1.9-.17-.43-.26-.95-.26-1.57v-5.14h-1.16l-.2-1.22 2.6-.45.65.7v5.68c0 1.32.38 2.06 1.15 2.23.2.05.4.08.6.08.2 0 .38-.02.57-.07.2-.05.37-.12.56-.22.4-.23.67-.5.8-.82v-5.9h-1.1l-.2-1.22 2.58-.47.6.7v7.43c0 .46.14.7.4.7l.37-.05.3.95c-.4.4-.85.6-1.37.6-.73 0-1.2-.33-1.43-.96zM566.13 758.9c-.62.64-1.4.96-2.35.96s-1.72-.27-2.3-.8c-.58-.53-.87-1.17-.87-1.9s.16-1.34.46-1.77c.3-.45.7-.8 1.2-1.04.84-.44 2.1-.67 3.75-.7v-1.48c0-.28-.12-.54-.38-.77-.26-.22-.67-.34-1.2-.34-.53 0-.9.1-1.17.34l-.42 1.36-2.2-.65c.32-1.15 1.1-1.93 2.37-2.34.45-.14.95-.2 1.5-.2 1.1 0 1.94.26 2.52.8.58.55.88 1.27.88 2.15v5.4c0 .28.1.43.3.43.1 0 .23-.05.43-.15l.46 1.1c-.44.38-.92.56-1.46.56-.8 0-1.3-.32-1.5-.95zm-2.98-.86c.15.1.3.18.48.2.17.05.36.07.57.07s.42-.04.64-.13c.2-.1.4-.2.55-.33.3-.22.5-.5.6-.84v-1.8c-.92 0-1.6.07-2.03.22-.44.15-.77.33-1 .57-.25.22-.37.5-.37.85s.05.6.16.77c.1.18.23.32.4.42zM573.17 758.3l1.32.32v1.13h-4.3l-.25-1.13 1.33-.3V746l-1.2.08-.2-1.26 2.6-.44.7.72v13.2zM581.23 759.75l-.2-1.5 1.27-.26V746.9l-1.26-.1v-1.57H590l.43 3.94h-1.3l-.85-2.15h-3.9v4.4h3.32v1.82h-3.32v4.64l3.4.5-.13 1.36h-6.42zM598.07 758.9c-.66.62-1.44.94-2.35.94-1.54 0-2.57-.63-3.1-1.9-.17-.43-.26-.95-.26-1.57v-5.14h-1.16L591 750l2.6-.45.65.7v5.68c0 1.32.38 2.06 1.15 2.23.2.05.4.08.6.08.2 0 .38-.02.57-.07.2-.05.37-.12.55-.22.4-.23.68-.5.8-.82v-5.9h-1.1l-.18-1.22 2.56-.47.6.7v7.43c0 .46.14.7.4.7l.37-.05.3.95c-.4.4-.85.6-1.37.6-.73 0-1.2-.33-1.43-.96zM609.94 752.32c0 .43-.08.86-.23 1.27-.13.4-.42.78-.84 1.1-.95.77-2.5 1.16-4.66 1.2.23 1.1.8 1.83 1.7 2.18.32.12.68.18 1.05.18s.7-.03.97-.1c.27-.05.5-.13.7-.2.37-.2.64-.36.8-.52l.45 1.47c-.15.17-.4.32-.78.48-1.4.57-2.78.62-4.12.14-1.22-.43-2.06-1.28-2.52-2.54-.24-.63-.36-1.37-.36-2.2s.13-1.6.38-2.26c.25-.65.6-1.2 1-1.63.85-.9 1.9-1.35 3.16-1.35.92 0 1.7.24 2.33.73.64.52.97 1.2.97 2.04zm-2 .17c0-.4-.1-.73-.32-.98s-.5-.38-.9-.38-.74.07-1.02.2c-.27.12-.52.3-.74.56-.5.57-.78 1.4-.86 2.44 1.02 0 1.78-.08 2.3-.25.5-.17.88-.38 1.14-.63.27-.26.4-.6.4-.98zM614.35 758.3l1.32.32v1.13h-4.28l-.27-1.13 1.33-.3V746l-1.2.08-.2-1.26 2.6-.44.7.72v13.2z"/></g></g><g><path fill="#87080F" d="M438.5 647.7c2-1.7 4.5-1.7 4.5-1.7v15h9.5v-15s3 0 5 1.7V661h-19v-13.3z"/><path fill="#CB2628" d="M424.5 690.05v18.15l.75.6c3.8 3.8 12.6 6.2 22.75 6.2 3.35 0 6.5-.3 9.5-.8v-18.7c-3.5.5-6.6.7-9.6.7-8 0-17.9-1.65-23.4-6.15zM464 721.4c0 1.4-.5 3.85-1.5 4.75-1.35 1.2-6.85 3.5-6.85 1.75s1.85-3.4 1.85-4.75v-.35c-3.5.5-6.6.75-9.6.75-8 0-17.9-1.5-23.4-6.1v4.1c0 12 47 12 47 0v-4.1c-2 1.6-4.5 2.8-7.5 3.75v.2zM425.2 681.35c3.85 3.85 12.6 6.25 22.75 6.25 3.3 0 6.5-.3 9.5-.75v-6.35c0-3-1.75-8.65-1.75-12.1 0-1 .65-2 1.5-1.7 3.5 1.25 6.75 10.1 6.75 13.75v4.5c3-1 5.15-2.15 6.6-3.65l.9-.6v-5.5c0-8.5-12.2-12-12.2-12-5.15 5.15-17.4 5.15-22.5 0 0 0-12.3 3.5-12.3 12v5.5l.7.6.05.05z"/><path fill="#CB2628" d="M425.6 725.3s-1.35 5.15-.85 6.9c3.25 11.75 43.25 11.75 46.5 0 .5-1.75-.85-6.9-.85-6.9-9.5 8.6-35.35 8.6-44.8 0zM464 693.7v19.15c3-1 7.5-4.4 7.5-4.4v-18.6c-2 1.65-4.5 2.9-7.5 3.85zM457.5 663.2v-15.5c-5 3.5-14.5 3.5-19 0v15.5c4.5 3.5 14 3.5 19 0z"/><path d="M431.27 745.24h4.52l.18 1.56-1.37.23v10.92h4.13l.73-2.12h1.33l-.43 3.92h-8.9l-.22-1.5 1.28-.22v-11.1l-1.26-.1v-1.6zM445.4 757.93c.34.07 1.35.2 3.03.42l-.06 1.4h-6.22l-.2-1.47 1.34-.3v-11.04l-1.34-.1v-1.6h4.43c1.94 0 3.4.44 4.4 1.33.9.8 1.35 1.9 1.35 3.3 0 1.65-.55 2.88-1.66 3.7-1 .7-2.37 1.06-4.15 1.06h-.96v3.3zm4.54-8.07c0-1.87-1.27-2.8-3.82-2.8h-.73v5.77h.87c1.3 0 2.24-.3 2.85-.9.55-.5.82-1.2.82-2.07zM462.23 757.95l.02-3.1-2.4-.28.38-1.5h4.1v6.4c-1 .24-2.1.37-3.3.37s-2.24-.16-3.16-.48c-.92-.32-1.72-.8-2.4-1.4-1.46-1.3-2.2-3.07-2.2-5.28 0-2.24.7-4.04 2.05-5.4 1.36-1.35 3.1-2.03 5.27-2.03 1.04 0 2.13.14 3.27.44l.3 3.8h-1.52l-.76-2.34c-.43-.07-.95-.1-1.56-.1-.62 0-1.23.13-1.85.4-.63.3-1.15.68-1.58 1.17-.96 1.08-1.43 2.4-1.43 4 0 1.63.5 2.93 1.5 3.9 1.02 1 2.4 1.5 4.1 1.5.47 0 .85-.02 1.13-.08z"/><path fill="#87080F" d="M424.5 682v6.9c9 8.6 37.5 8.6 47 0V682c-9.5 8.6-38 8.6-47 0zm0 27.35v6.9c9 8.6 37.5 8.6 47 0v-6.9c-9.5 8.6-38 8.6-47 0z"/><path fill="#87080F" d="M424.75 721.85s-.3 1.9.85 3.5c7.75 10.3 37 10.3 44.8 0 1.15-1.6.85-3.5.85-3.5-6.85 10.35-39.65 10.35-46.5 0z"/><path fill="#470004" d="M455.75 732.4c-3.5 1.75-12 1.75-15.5 0-.4-.2-.5-2.4 0-2.35 3.5.5 12 .5 15.5 0 .5 0 .4 2.2 0 2.4v-.05z"/></g><g><linearGradient id="d" x1="318.34" x2="318.34" y1="737.72" y2="645.69" gradientUnits="userSpaceOnUse"><stop offset="0" stop-color="#1088D2"/><stop offset="1" stop-color="#2B3797"/></linearGradient><path fill="url(#d)" fill-rule="evenodd" d="M320.8 645.7c-2.73.12-8.2 7.95-8.2 17 0 9.03 1.1 18.34 1.1 18.34s-2.05 5.26-5.74 5.4c-3.7.13-3.56-4.32-3.56-4.32l1.37-5.13s-20.23 16.18-19.4 30.76c.67 17 21.18 30.22 33.07 29.95 17.22-.26 30.9-18.74 30.9-32.9.94-23.22-31.04-34.55-29.54-59.1z" clip-rule="evenodd"/><linearGradient id="e" x1="318.01" x2="318.01" y1="737.83" y2="679.43" gradientUnits="userSpaceOnUse"><stop offset="0" stop-color="#1088D2"/><stop offset="1" stop-color="#9CF6FE"/></linearGradient><path fill="url(#e)" fill-rule="evenodd" d="M320.15 737.82c-10.03-.14-18.44-11.27-20.1-15.68l-.26-.68.72.06c.5.04.96.06 1.38.06 1.87 0 3.1-.4 3.72-1.2 1.1-1.37.47-4-.2-6.78-.78-3.36-1.68-7.16.14-9.95 1.83-3.8 3.86-5.55 6-7.4 3.08-2.68 6.56-5.7 10.35-16l.32-.82.5.73c8.1 11.7 4.04 16.52.47 20.78-2.66 3.14-4.95 5.87-2.4 11.03 1.83 1.45 3.47 2.2 4.86 2.2 1.1 0 2.06-.48 2.84-1.4 1.5-1.75 2-4.73 1.87-5.56-.02-.1-.06-.34.1-.53l.14-.16h.25c.23 0 .4.17.44.22.84.95 5.4 10.73 4.9 15.58-.55 5.24-5.9 15.53-15.85 15.53h-.2z" clip-rule="evenodd"/><path fill="#FFF" d="M322.35 680.42c13.8 19.97-8.34 19.03-1.92 31.85 2.12 1.7 3.84 2.35 5.23 2.35 4.25 0 5.37-6.16 5.16-7.48-.02-.12 0-.18.03-.18.46 0 5.4 10.4 4.9 15.3-.55 5.22-5.95 15.1-15.4 15.1h-.2c-9.56-.13-17.9-10.66-19.67-15.38.5.05.98.07 1.42.07 10.4 0-.02-11.93 4.04-18.15 4.52-9.3 9.98-6.07 16.4-23.48m-.24-1.98l-.62 1.66c-3.75 10.17-7.2 13.16-10.22 15.8-2.17 1.88-4.22 3.66-6.12 7.55-1.9 2.94-.97 6.83-.15 10.26.62 2.68 1.22 5.2.27 6.4-.54.68-1.67 1.02-3.37 1.02-.4 0-.86-.02-1.34-.06l-1.46-.12.52 1.36c1.7 4.5 10.27 15.84 20.53 15.98h.2c10.23 0 15.75-10.55 16.3-15.94.54-5.08-4.12-14.93-5.02-15.93-.23-.24-.5-.36-.78-.36h-.43l-.3.33c-.3.35-.23.77-.2.9.1.7-.34 3.53-1.76 5.2-.7.82-1.53 1.22-2.5 1.22-1.26 0-2.77-.7-4.5-2.03-2.33-4.83-.25-7.3 2.38-10.44 3.68-4.38 7.85-9.34-.44-21.33l-1-1.46z"/><g fill="#18181B"><path d="M273.64 756.37l.02 1.5c0 .08 0 .14.02.18l1.2.2v1.5h-4.08l-.25-1.5 1.32-.26v-11.03l-1.26-.13v-1.6h4.4l5.3 12.5v-10.77l-1.3-.17v-1.56h4.13l.27 1.58-1.34.25v12.68h-3.1l-5.32-12.5v9.12zM290.17 758.9c-.62.64-1.4.96-2.36.96s-1.7-.27-2.3-.8c-.57-.53-.86-1.17-.86-1.9s.15-1.34.45-1.77c.3-.45.7-.8 1.18-1.04.86-.44 2.1-.67 3.76-.7v-1.48c0-.28-.13-.54-.4-.77-.25-.22-.65-.34-1.2-.34-.5 0-.9.1-1.15.34l-.43 1.36-2.2-.65c.32-1.15 1.1-1.93 2.37-2.34.45-.14.95-.2 1.5-.2 1.1 0 1.94.26 2.52.8s.87 1.27.87 2.15v5.4c0 .28.1.43.3.43.1 0 .24-.05.44-.15l.46 1.1c-.44.38-.92.56-1.45.56-.8 0-1.3-.32-1.5-.95zm-3-.86c.17.1.33.18.5.2.16.05.35.07.56.07s.43-.04.64-.13c.22-.1.4-.2.56-.33.3-.22.5-.5.6-.84v-1.8c-.9 0-1.6.07-2.03.22-.43.15-.77.33-1 .57-.24.22-.36.5-.36.85s.05.6.16.77c.1.18.23.32.38.42zM299.5 757.63l.45 1.4c-.2.17-.48.35-.86.54-.4.18-.88.27-1.48.27s-1.1-.18-1.52-.55c-.42-.37-.62-.97-.62-1.8v-6.38h-1.72l-.3-1.36.15-.2h1.88v-3.52l1.68-.4.1.32v3.6h2.2c.06 0 .1.03.1.12v1.44h-2.3v6.03c0 .45.07.74.2.87.14.14.3.2.5.2s.38-.02.52-.06c.14-.04.28-.1.4-.17.27-.12.48-.24.63-.37zM307.53 758.9c-.66.62-1.44.94-2.35.94-1.54 0-2.57-.63-3.1-1.9-.17-.43-.26-.95-.26-1.57v-5.14h-1.16l-.2-1.22 2.6-.45.65.7v5.68c0 1.32.4 2.06 1.17 2.23.2.05.4.08.6.08.18 0 .37-.02.56-.07.2-.05.38-.12.56-.22.4-.23.66-.5.78-.82v-5.9h-1.1l-.18-1.22 2.57-.47.6.7v7.43c0 .46.13.7.38.7l.38-.05.3.95c-.4.4-.85.6-1.37.6-.73 0-1.2-.33-1.43-.96zM314.65 750.54c.56-.65 1.3-.97 2.2-.97.6 0 1.12.15 1.55.46.43.3.75.7.96 1.14l-2.08 1.05-.65-1c-.48 0-.9.2-1.3.6-.38.4-.57.94-.57 1.6v4.55c0 .06.12.1.35.15l2.4.5v1.13h-5.68l-.26-1.13 1.3-.3v-7.07h-1.15l-.18-1.24c.8-.12 1.6-.26 2.48-.43l.65.97zM325.7 758.9c-.62.64-1.4.96-2.35.96s-1.72-.27-2.3-.8c-.58-.53-.88-1.17-.88-1.9s.15-1.34.46-1.77c.3-.45.7-.8 1.18-1.04.87-.44 2.12-.67 3.77-.7v-1.48c0-.28-.13-.54-.4-.77-.24-.22-.65-.34-1.2-.34-.5 0-.9.1-1.15.34l-.42 1.36-2.2-.65c.32-1.15 1.1-1.93 2.37-2.34.45-.14.95-.2 1.5-.2 1.1 0 1.94.26 2.52.8s.86 1.27.86 2.15v5.4c0 .28.1.43.3.43.1 0 .24-.05.44-.15l.46 1.1c-.44.38-.92.56-1.45.56-.8 0-1.3-.32-1.5-.95zm-3-.86c.17.1.33.18.5.2.17.05.35.07.56.07s.43-.04.64-.13c.22-.1.4-.2.56-.33.3-.22.5-.5.6-.84v-1.8c-.9 0-1.6.07-2.03.22-.43.15-.77.33-1 .57-.24.22-.36.5-.36.85s.05.6.16.77c.1.18.23.32.38.42zM332.73 758.3l1.32.32v1.13h-4.28l-.25-1.13 1.32-.3V746l-1.2.08-.2-1.26 2.62-.44.67.72v13.2zM349.22 757.95l.02-3.1-2.4-.28.38-1.5h4.1v6.4c-1 .24-2.1.37-3.3.37s-2.24-.16-3.16-.48c-.92-.32-1.72-.8-2.4-1.4-1.46-1.3-2.2-3.07-2.2-5.28 0-2.24.7-4.04 2.05-5.4 1.36-1.35 3.12-2.03 5.28-2.03 1.05 0 2.14.14 3.27.44l.32 3.8h-1.53l-.76-2.34c-.42-.07-.94-.1-1.55-.1-.62 0-1.24.13-1.85.4-.62.3-1.14.68-1.58 1.17-.95 1.08-1.42 2.4-1.42 4 0 1.63.5 2.93 1.5 3.9 1.03 1 2.4 1.5 4.1 1.5.48 0 .86-.02 1.14-.08zM358.77 758.9c-.6.64-1.4.96-2.35.96s-1.72-.27-2.3-.8c-.58-.53-.87-1.17-.87-1.9s.15-1.34.45-1.77c.3-.45.7-.8 1.2-1.04.84-.44 2.1-.67 3.75-.7v-1.48c0-.28-.13-.54-.4-.77-.25-.22-.65-.34-1.2-.34-.52 0-.9.1-1.15.34l-.42 1.36-2.2-.65c.3-1.15 1.1-1.93 2.36-2.34.45-.14.96-.2 1.52-.2 1.1 0 1.92.26 2.5.8s.88 1.27.88 2.15v5.4c0 .28.1.43.3.43.1 0 .24-.05.43-.15l.46 1.1c-.43.38-.9.56-1.45.56-.8 0-1.3-.32-1.5-.95zm-2.98-.86c.14.1.3.18.47.2.17.05.36.07.57.07s.42-.04.64-.13c.22-.1.4-.2.56-.33.3-.22.5-.5.6-.84v-1.8c-.92 0-1.6.07-2.03.22-.43.15-.76.33-1 .57-.24.22-.36.5-.36.85s.06.6.16.77c.1.18.24.32.4.42zM366.48 749.55c.45 0 .86.06 1.24.2s.7.27.98.47c.54.36.95.83 1.24 1.4l-2.14.83-.48-1.08c-.28-.14-.58-.2-.9-.2-.33 0-.62.1-.9.28-.25.2-.4.46-.4.83s.2.66.54.9c.35.22.83.46 1.45.72.62.25 1.1.5 1.42.7.33.23.6.47.77.72.34.47.52.98.52 1.55 0 .56-.1 1.03-.32 1.4-.2.36-.48.66-.82.9-.66.44-1.45.67-2.4.67-.78 0-1.54-.22-2.28-.65-.7-.43-1.13-.95-1.34-1.57l2.16-.82.5 1.23c.32.14.62.2.9.2s.5 0 .66-.05.32-.1.46-.2c.32-.2.48-.5.48-.9 0-.53-.32-.93-.95-1.2-.64-.27-1.2-.52-1.64-.74-.46-.23-.84-.47-1.15-.72-.63-.53-.94-1.23-.94-2.1 0-.85.34-1.54 1.03-2.06.64-.47 1.4-.7 2.3-.7z"/></g></g><g><path d="M146.2 737c-2.17 0-4.17-1.18-5.23-3.08-1.06-1.9-1-4.22.13-6.07l45.8-74.17c1.1-1.77 3.02-2.85 5.1-2.85s4 1.08 5.1 2.85l45.8 74.17c1.14 1.85 1.2 4.17.13 6.07-1.06 1.9-3.06 3.08-5.24 3.08h-91.6z"/><path fill="#FFE200" stroke="#FFF" stroke-miterlimit="10" d="M192 656.83L237.8 731h-91.6z"/><path stroke="#FFF" stroke-miterlimit="10" d="M201.38 687.85l-5.8 26.4 5.7.65c-4 4.5-7.86 8.7-11.9 13.15-1.76-5.5-3.5-10.75-5.2-16.3l5.3 1.3 2.35-13.1c-5.8 3.3-17.2 9.4-17.2 9.4 4-13.65 7.9-27.35 11.9-41.35 3.25 2.5 6.7 3.8 10.9 3.5l-10.7 23.8 14.65-7.45z"/><path d="M142.07 758.37l2.4-.42v-10.9h-2.6l-.85 2.08h-1.28l.44-3.9h10.7l.48 3.9h-1.3l-.87-2.08h-2.63v10.9l2.43.42-.2 1.38h-6.45l-.28-1.38zM155.28 750.3c.7-.5 1.53-.75 2.48-.75 1.46 0 2.4.53 2.86 1.6.16.36.25.8.25 1.34v5.8l1.26.32v1.14h-4.18l-.25-1.14 1.28-.3v-5.5c0-.64-.15-1.08-.44-1.3-.3-.24-.6-.35-.94-.35-.33 0-.6.03-.82.08l-.62.2c-.4.18-.68.36-.88.56v6.3l1.24.32v1.14h-4.18l-.25-1.14 1.3-.3V746l-1.2.08-.2-1.26 2.63-.44.65.72v5.22zM166.3 750.54c.57-.65 1.3-.97 2.2-.97.6 0 1.13.15 1.55.46.43.3.75.7.96 1.14l-2.07 1.05-.65-1c-.48 0-.9.2-1.28.6-.4.4-.6.94-.6 1.6v4.55c0 .06.13.1.37.15l2.37.5v1.13h-5.67l-.25-1.13 1.3-.3v-7.07h-1.15l-.2-1.24c.8-.12 1.62-.26 2.48-.43l.66.97zM179.5 752.32c0 .43-.06.86-.2 1.27s-.44.78-.86 1.1c-.95.77-2.5 1.16-4.66 1.2.23 1.1.8 1.83 1.7 2.18.32.12.67.18 1.05.18s.7-.03.97-.1c.26-.05.5-.13.7-.2.37-.2.64-.36.8-.52l.45 1.47c-.15.17-.4.32-.77.48-1.4.57-2.78.62-4.12.14-1.22-.43-2.06-1.28-2.52-2.54-.24-.63-.36-1.37-.36-2.2s.13-1.6.38-2.26c.25-.65.6-1.2 1-1.63.85-.9 1.9-1.35 3.16-1.35.92 0 1.7.24 2.33.73.64.52.96 1.2.96 2.04zm-1.98.17c0-.4-.1-.73-.3-.98s-.53-.38-.93-.38-.74.07-1.02.2-.52.3-.74.56c-.5.57-.78 1.4-.86 2.44 1.02 0 1.78-.08 2.3-.25s.88-.38 1.14-.63c.27-.26.4-.6.4-.98zM188.84 752.32c0 .43-.07.86-.22 1.27s-.43.78-.85 1.1c-.95.77-2.5 1.16-4.66 1.2.23 1.1.8 1.83 1.7 2.18.33.12.68.18 1.06.18s.7-.03.96-.1c.27-.05.5-.13.7-.2.37-.2.64-.36.8-.52l.46 1.47c-.16.17-.42.32-.78.48-1.4.57-2.77.62-4.12.14-1.2-.43-2.05-1.28-2.52-2.54-.23-.63-.35-1.37-.35-2.2s.13-1.6.38-2.26c.26-.65.6-1.2 1-1.63.85-.9 1.9-1.35 3.16-1.35.93 0 1.7.24 2.33.73.65.52.97 1.2.97 2.04zm-2 .17c0-.4-.1-.73-.3-.98s-.52-.38-.92-.38-.74.07-1 .2-.53.3-.76.56c-.5.57-.78 1.4-.86 2.44 1.02 0 1.8-.08 2.3-.25s.88-.38 1.14-.63c.27-.26.4-.6.4-.98zM199.04 757.93c.35.07 1.37.2 3.05.42l-.07 1.4h-6.22l-.2-1.47 1.34-.3v-11.04l-1.32-.1v-1.6h4.43c1.95 0 3.42.44 4.4 1.33.9.8 1.36 1.9 1.36 3.3 0 1.65-.55 2.88-1.65 3.7-.98.7-2.36 1.06-4.14 1.06h-.96v3.3zm4.56-8.07c0-1.87-1.27-2.8-3.82-2.8h-.73v5.77h.88c1.28 0 2.24-.3 2.85-.9.55-.5.82-1.2.82-2.07zM209.8 750.3c.7-.5 1.52-.75 2.47-.75 1.46 0 2.4.53 2.86 1.6.17.36.25.8.25 1.34v5.8l1.26.32v1.14h-4.18l-.25-1.14 1.3-.3v-5.5c0-.64-.16-1.08-.45-1.3-.3-.24-.6-.35-.93-.35-.33 0-.6.03-.82.08-.22.06-.43.13-.62.2-.4.18-.7.36-.88.56v6.3l1.23.32v1.14h-4.17l-.26-1.14 1.3-.3V746l-1.2.08-.18-1.26 2.62-.44.66.72v5.22zM223.36 758.9c-.6.64-1.4.96-2.35.96s-1.7-.27-2.3-.8c-.57-.53-.86-1.17-.86-1.9s.15-1.34.45-1.77c.3-.45.7-.8 1.18-1.04.85-.44 2.1-.67 3.76-.7v-1.48c0-.28-.13-.54-.4-.77-.25-.22-.65-.34-1.2-.34-.52 0-.9.1-1.15.34l-.43 1.36-2.2-.65c.3-1.15 1.1-1.93 2.36-2.34.45-.14.96-.2 1.52-.2 1.1 0 1.92.26 2.5.8s.88 1.27.88 2.15v5.4c0 .28.1.43.3.43.1 0 .24-.05.43-.15l.46 1.1c-.43.38-.9.56-1.45.56-.8 0-1.3-.32-1.5-.95zm-2.98-.86c.15.1.32.18.48.2.17.05.36.07.57.07s.42-.04.64-.13c.22-.1.4-.2.56-.33.3-.22.5-.5.6-.84v-1.8c-.92 0-1.6.07-2.03.22-.44.15-.77.33-1 .57-.25.22-.37.5-.37.85s.06.6.16.77c.1.18.23.32.38.42zM231.07 749.55c.45 0 .86.06 1.24.2s.72.27 1 .47c.53.36.94.83 1.23 1.4l-2.14.83-.5-1.08c-.27-.14-.57-.2-.9-.2-.3 0-.6.1-.87.28-.27.2-.4.46-.4.83s.17.66.52.9c.35.22.83.46 1.45.72.62.25 1.1.5 1.42.7.33.23.58.47.76.72.35.47.53.98.53 1.55 0 .56-.1 1.03-.3 1.4-.22.36-.5.66-.82.9-.66.44-1.46.67-2.4.67-.78 0-1.55-.22-2.3-.65-.67-.43-1.12-.95-1.33-1.57l2.16-.82.52 1.23c.32.14.62.2.9.2s.48 0 .65-.05.32-.1.46-.2c.32-.2.5-.5.5-.9 0-.53-.33-.93-.97-1.2-.64-.27-1.18-.52-1.64-.74-.45-.23-.84-.47-1.14-.72-.63-.53-.95-1.23-.95-2.1 0-.85.34-1.54 1.03-2.06.64-.47 1.4-.7 2.3-.7zM243.8 752.32c0 .43-.08.86-.23 1.27s-.43.78-.85 1.1c-.95.77-2.5 1.16-4.66 1.2.23 1.1.8 1.83 1.7 2.18.32.12.67.18 1.05.18s.7-.03.98-.1c.26-.05.5-.13.7-.2.37-.2.64-.36.8-.52l.45 1.47c-.15.17-.4.32-.77.48-1.4.57-2.78.62-4.12.14-1.22-.43-2.06-1.28-2.52-2.54-.24-.63-.36-1.37-.36-2.2s.13-1.6.38-2.26c.25-.65.6-1.2 1-1.63.85-.9 1.9-1.35 3.16-1.35.92 0 1.7.24 2.33.73.64.52.96 1.2.96 2.04zm-2 .17c0-.4-.1-.73-.32-.98s-.5-.38-.9-.38-.74.07-1.02.2-.52.3-.74.56c-.5.57-.78 1.4-.86 2.44 1.02 0 1.78-.08 2.3-.25s.87-.38 1.14-.63c.27-.26.4-.6.4-.98z"/></g><g><path d="M18.2 737c-2.17 0-4.18-1.18-5.24-3.08-1.06-1.9-1-4.22.14-6.07l45.8-74.17c1.1-1.77 3.02-2.85 5.1-2.85s4 1.08 5.1 2.85l45.8 74.17c1.14 1.85 1.2 4.17.13 6.07-1.06 1.9-3.06 3.08-5.24 3.08H18.2z"/><path fill="#FFE200" stroke="#FFF" stroke-miterlimit="10" d="M64 656.83L109.8 731H18.2z"/><path stroke="#FFF" stroke-miterlimit="10" d="M73.38 687.85l-5.8 26.4 5.7.65c-4 4.5-7.85 8.7-11.9 13.15-1.75-5.5-3.5-10.75-5.2-16.3l5.3 1.3 2.35-13.1c-5.8 3.3-17.2 9.4-17.2 9.4 4-13.65 7.9-27.35 11.9-41.35 3.24 2.5 6.7 3.8 10.9 3.5l-10.7 23.8 14.65-7.45z"/><path d="M11.5 759.04l.14-3.55h1.47l.4 2.24c.6.22 1.2.34 1.8.34 1.2 0 2.02-.4 2.47-1.18.15-.27.23-.6.23-1.04s-.13-.8-.4-1.16c-.25-.34-.67-.66-1.27-.95-.6-.3-1.18-.56-1.76-.8s-1.1-.52-1.58-.85c-.48-.33-.86-.73-1.16-1.22-.3-.48-.45-1.06-.45-1.74s.1-1.25.35-1.7c.25-.48.58-.87 1-1.2.88-.66 1.96-1 3.24-1 1.22 0 2.4.2 3.53.63l.3 3.6h-1.45l-.92-2.25c-.42-.14-.95-.2-1.6-.2-.63 0-1.17.13-1.6.43s-.67.74-.67 1.34c0 .7.34 1.26 1.04 1.7.3.22.65.4 1.03.57l1.3.58c.5.22.98.5 1.4.8.44.3.8.63 1.06.96.5.64.76 1.36.76 2.17 0 .82-.15 1.48-.42 2-.28.53-.65.97-1.1 1.3-.88.65-2.02.97-3.45.97-1.43 0-2.68-.27-3.74-.8zM24.9 758.3l1.25.32v1.13h-4.2l-.23-1.13 1.3-.3v-7.13l-1.16.07-.2-1.26 2.58-.45.67.67v8.06zm-2.55-12.53c0-.36.12-.67.38-.92s.56-.38.92-.38.67.13.92.4.38.57.38.92-.12.64-.38.9c-.25.24-.56.37-.92.37s-.67-.13-.92-.38c-.26-.26-.38-.57-.38-.93zM30.47 750.33c.68-.52 1.52-.78 2.52-.78 1.45 0 2.4.53 2.87 1.6.16.36.23.8.23 1.34v5.76l1.26.36v1.13h-4.18l-.25-1.13 1.28-.3v-5.52c0-.63-.14-1.06-.43-1.3-.3-.22-.66-.33-1.1-.33s-.85.1-1.25.27c-.4.18-.7.36-.88.54v6.3l1.2.34v1.13H27.6l-.26-1.13 1.33-.3v-7.13l-1.16.07-.22-1.26.63-.1.73-.14.7-.12c.2-.03.4-.06.53-.1l.6.8zM40.16 756.5c-1.08-.7-1.62-1.74-1.62-3.1 0-1.1.38-2.03 1.15-2.76.74-.73 1.64-1.1 2.7-1.1 1.08 0 2 .32 2.75.93l2.08-1.05.44.07.2 1.73-1.88.23c.33.6.5 1.25.5 1.9s-.12 1.2-.35 1.67-.53.85-.9 1.15c-.75.62-1.66.93-2.74.93-.34 0-.65-.02-.92-.08l-.52.82.08.36.9.13c.47.07 1 .17 1.6.3.6.15 1.12.33 1.55.55s.75.45 1 .7c.42.46.63 1.04.63 1.74s-.12 1.3-.37 1.77-.58.86-1 1.18c-.82.63-1.82.95-3 .95-1.27 0-2.3-.27-3.08-.8-.85-.58-1.28-1.35-1.28-2.33 0-1.32.58-2.26 1.74-2.84-.33-.28-.5-.72-.5-1.33s.27-1.18.82-1.73zm5.08 5.55c0-.44-.2-.74-.58-.92-.39-.18-.92-.34-1.62-.48-.7-.15-1.23-.28-1.6-.4-1 .42-1.5 1.03-1.5 1.86 0 .47.26.85.78 1.16.48.28 1.1.42 1.85.42.74 0 1.36-.16 1.87-.48.53-.32.8-.7.8-1.15zm-2.82-10.93c-.57.03-1.03.25-1.37.65-.34.4-.52.87-.52 1.38s.06.9.17 1.2c.1.27.26.5.44.66.35.36.8.53 1.38.53.56 0 1.04-.18 1.4-.56.4-.38.58-.93.58-1.64s-.2-1.26-.6-1.64c-.4-.4-.86-.58-1.4-.58h-.08zM51.62 758.3l1.32.32v1.13h-4.28l-.25-1.13 1.33-.3V746l-1.2.08-.2-1.26 2.62-.44.67.72v13.2zM61.9 752.32c0 .43-.08.86-.23 1.27s-.43.78-.85 1.1c-.95.77-2.5 1.16-4.66 1.2.22 1.1.8 1.83 1.7 2.18.32.12.67.18 1.05.18s.7-.03.97-.1c.27-.05.5-.13.7-.2.37-.2.64-.36.8-.52l.46 1.47c-.16.17-.42.32-.78.48-1.4.57-2.77.62-4.12.14-1.2-.43-2.05-1.28-2.52-2.54-.22-.63-.34-1.37-.34-2.2s.12-1.6.37-2.26c.26-.65.6-1.2 1-1.63.85-.9 1.9-1.35 3.16-1.35.92 0 1.7.24 2.32.73.65.52.97 1.2.97 2.04zm-2 .17c0-.4-.1-.73-.32-.98s-.5-.38-.9-.38-.75.07-1.02.2-.52.3-.75.56c-.48.57-.76 1.4-.85 2.44 1.03 0 1.8-.08 2.3-.25s.88-.38 1.15-.63c.26-.26.4-.6.4-.98zM72.1 757.93c.35.07 1.36.2 3.04.42l-.06 1.4h-6.22l-.2-1.47L70 758v-11.04l-1.33-.1v-1.6h4.43c1.95 0 3.42.44 4.4 1.33.9.8 1.36 1.9 1.36 3.3 0 1.65-.55 2.88-1.66 3.7-.98.7-2.36 1.06-4.14 1.06h-.96v3.3zm4.55-8.07c0-1.87-1.27-2.8-3.82-2.8h-.73v5.77h.88c1.3 0 2.24-.3 2.85-.9.55-.5.82-1.2.82-2.07zM82.85 750.3c.7-.5 1.52-.75 2.48-.75 1.45 0 2.4.53 2.85 1.6.17.36.25.8.25 1.34v5.8l1.26.32v1.14h-4.2l-.24-1.14 1.28-.3v-5.5c0-.64-.14-1.08-.44-1.3-.3-.24-.6-.35-.93-.35-.33 0-.6.03-.82.08-.22.06-.42.13-.62.2-.4.18-.7.36-.88.56v6.3l1.24.32v1.14h-4.2l-.24-1.14 1.3-.3V746l-1.2.08-.2-1.26 2.64-.44.65.72v5.22zM96.4 758.9c-.6.64-1.4.96-2.34.96s-1.72-.27-2.3-.8c-.58-.53-.87-1.17-.87-1.9s.14-1.34.44-1.77c.3-.45.7-.8 1.2-1.04.84-.44 2.1-.67 3.75-.7v-1.48c0-.28-.14-.54-.4-.77-.26-.22-.66-.34-1.2-.34-.53 0-.9.1-1.16.34l-.42 1.36-2.2-.65c.3-1.15 1.1-1.93 2.37-2.34.43-.14.94-.2 1.5-.2 1.1 0 1.93.26 2.5.8s.88 1.27.88 2.15v5.4c0 .28.1.43.3.43.1 0 .24-.05.43-.15l.48 1.1c-.44.38-.92.56-1.45.56-.8 0-1.3-.32-1.52-.95zm-2.97-.86c.16.1.32.18.48.2.18.05.37.07.58.07s.42-.04.64-.13c.22-.1.4-.2.56-.33.3-.22.5-.5.6-.84v-1.8c-.92 0-1.6.07-2.03.22-.43.15-.77.33-1 .57-.25.22-.36.5-.36.85s.04.6.14.77c.1.18.24.32.4.42zM104.12 749.55c.45 0 .86.06 1.24.2s.7.27 1 .47c.52.36.93.83 1.23 1.4l-2.16.83-.48-1.08c-.28-.14-.58-.2-.9-.2-.32 0-.62.1-.88.28-.27.2-.4.46-.4.83s.17.66.52.9c.35.22.83.46 1.45.72.62.25 1.1.5 1.42.7.33.23.58.47.76.72.35.47.53.98.53 1.55 0 .56-.1 1.03-.32 1.4-.2.36-.48.66-.8.9-.67.44-1.47.67-2.4.67-.8 0-1.56-.22-2.3-.65-.68-.43-1.13-.95-1.34-1.57l2.16-.82.5 1.23c.33.14.63.2.9.2s.5 0 .66-.05.32-.1.46-.2c.33-.2.5-.5.5-.9 0-.53-.33-.93-.97-1.2-.63-.27-1.17-.52-1.63-.74-.45-.23-.84-.47-1.14-.72-.63-.53-.95-1.23-.95-2.1 0-.85.35-1.54 1.03-2.06.66-.47 1.42-.7 2.32-.7zM116.85 752.32c0 .43-.08.86-.22 1.27s-.43.78-.85 1.1c-.96.77-2.5 1.16-4.67 1.2.24 1.1.8 1.83 1.7 2.18.34.12.7.18 1.06.18s.7-.03.97-.1c.27-.05.5-.13.7-.2.37-.2.64-.36.8-.52l.45 1.47c-.15.17-.4.32-.77.48-1.4.57-2.77.62-4.1.14-1.23-.43-2.07-1.28-2.53-2.54-.24-.63-.36-1.37-.36-2.2s.14-1.6.4-2.26c.24-.65.58-1.2 1-1.63.84-.9 1.9-1.35 3.15-1.35.92 0 1.7.24 2.33.73.64.52.97 1.2.97 2.04zm-2 .17c0-.4-.1-.73-.3-.98s-.53-.38-.93-.38-.73.07-1 .2-.52.3-.75.56c-.5.57-.78 1.4-.86 2.44 1.03 0 1.8-.08 2.3-.25s.9-.38 1.15-.63c.27-.26.4-.6.4-.98z"/></g><g fill="#E4E4E7"><path fill-rule="evenodd" d="M612.5 84.5l-22-4c-2-4-2-5.74-2-8 2-2 6-4 6-6 2-6 2-10 2-10 1.03-1.5 4-4 4-8s-4-8-4-10c0-16-8.15-22-20-22-11.34 0-20 6-20 22 0 2-4 6-4 10s2.86 6.63 4 8c0 0 0 4 2 10 0 2 4 4 6 6 0 2 0 4-2 8l-22 4c-8 2-12 16-12 28h96c0-12-4-26-12-28z" clip-rule="evenodd"/><path d="M984.5 536.5v16h-48v-16h-16v88h80v-88h-16zM954.85 610l-23.22-23.23 6.96-6.97 15.1 15.1 25.55-33.68 8.13 6.97-32.53 41.8zm25.65-61.5h-40v-12h40v12zm-12.5-12c0 4.42-3.58 8-8 8s-8-3.58-8-8 3.58-8 8-8 8 3.58 8 8zM784 546l44 12v68l-40-20-4-60zm52 80l40-20 4-60-44 12v68zm-52-88l48 12 48-12-48-12-48 12zM660 620h88v-88h-88v88zm8-80h72v72h-72v-72zm56 48l8-8v24h-24l8-8-8-8 8-8 8 8zm-24-40l-8 8 8 8-8 8-8-8-8 8v-24h24zM524 616h104v-80H524v80zm88-72l-36 36-36-36h72zm-80 4l44 44 44-44v60h-88v-60zM448 528c-26.5 0-48 16.1-48 36 0 14 10.8 26.2 26.5 32.15L416 624l30.1-24h1.9c26.5 0 48-16.1 48-36s-21.5-36-48-36zM355 616.15l-7.75-16c-1.7-3.5-3.85-6-7.5-4.5l-7.4 2.8c-5.85 2.7-8.8 0-11.7-4.15l-13.2-30c-1.7-3.5-.85-6.65 2.9-8.2l10.25-4.1c3.7-1.5 3.1-4.7 1.5-8.15l-8.85-16.35c-1.65-3.5-5-4.25-8.8-2.75-7.5 3.1-13.6 7.9-17.5 15-5 8.75-2.5 20.85-1.5 26 1 5 4.35 14 8.75 23.15 4.4 9.15 8.3 16.4 11.75 20.5 3.45 4.1 11.7 15.2 22 17.7 8.35 2 17.5.35 24.9-2.75 3.7-1.5 3.7-4.75 2-8.2h.15zM240 572v4h-96v-4c0-2.2 1.8-4 4-4h88c2.2 0 4 1.8 4 4zm-60-44l-16 36h8l16-36h-8zm24 0h-8l16 36h8l-16-36zm-56 52h88l-4 36c0 4.5-3.6 8-8 8h-64c-4.4 0-8-3.5-8-8l-4-36zm60 36h8l4-28h-8l-4 28zm-20 0h8v-28h-8v28zm-24-28l4 28h8l-4-28h-8zM70 614c0 5.5-4.5 10-10 10s-10-4.5-10-10 4.5-10 10-10 10 4.5 10 10zm17.8-74c-1.5-2.6-3.5-4.8-6-6.5-2.5-1.85-5.5-3.2-8.9-4.1-3.4-.9-7-1.35-10.8-1.35-8.3 0-16.4 1.8-24.1 6v16c6.35-5.8 13.1-9.35 20.15-9.35 2.15 0 4.2.25 6.1.7 1.9.5 3.6 1.2 5.1 2.2s2.65 2.25 3.5 3.7c.85 1.5 1.15 2.85 1.15 4.8 0 2.15-.5 4.5-1.65 6.25-1.15 1.85-2.5 3.5-4.3 5.2-1.65 1.6-3.5 3.3-5.5 5-2 1.75-3.9 3.5-5.6 5.5-1.75 1.8-3.15 3.8-4.3 6-1.15 2.1-1.75 4.5-1.75 7.1 0 1.7.15 3.5.5 5.15.35 1.75.25 2.65.65 3.75h16c-1.4-2.85-2-4.65-2-8 0-2.25.75-6.2 2-8 1.2-1.85 1.65-2 3.5-3.75 1.9-1.65 3.9-3.35 6-5 2.2-1.75 4.15-3.7 6-5.85 1.9-2.2 3.5-4.6 4.65-7.2 1.25-2.6 1.85-4.9 1.85-8.2 0-3.5-.75-7.3-2.2-10l-.05-.05zM988 480l-32-32 32-32-12-12-44 44 44 44M804 416l32 32-32 32 12 12 44-44-44-44M716 404c-17.65 0-32 14.35-32 32 0 5.75 1.5 11.15 4.2 15.8L660 480l4 8 8 4 28.2-28.2c4.65 2.65 10 4.2 15.8 4.2 17.65 0 32-14.3 32-32s-14.35-32-32-32zm0 54c-12.15 0-22-9.85-22-22s9.85-22 22-22 22 9.85 22 22-9.85 22-22 22zM608 420l-32 32-32-32-12 12 44 44 44-44M400 440h96v16h-96v-16zm0-32h96v16h-96v-16zm0 64h96v16h-96v-16zM328 400h-16v40h-40v16h40v40h16v-40h40v-16h-40M182 464l-26-26-12 12 40 40 56-72-14-12M104 420l-12-12-28 28-28-28-12 12 28 28-28 28 12 12 28-28 28 28 12-12-28-28"/></g><g fill="#18181B"><path d="M984.5 280.5v16h-48v-16h-16v88h80v-88h-16zM954.85 354l-23.22-23.23 6.96-6.97 15.1 15.1 25.55-33.68 8.13 6.97-32.53 41.8zm25.65-61.5h-40v-12h40v12zm-12.5-12c0 4.42-3.58 8-8 8s-8-3.58-8-8 3.58-8 8-8 8 3.58 8 8zM784 290l44 12v68l-40-20-4-60zm0-8l48 12 48-12-48-12-48 12zm52 88l40-20 4-60-44 12v68zM660 364h88v-88h-88v88zm8-80h72v72h-72v-72zm32 8l-8 8 8 8-8 8-8-8-8 8v-24h24zm24 40l8-8v24h-24l8-8-8-8 8-8 8 8zM524 360h104v-80H524v80zm88-72l-36 36-36-36h72zm-80 4l44 44 44-44v60h-88v-60zM448 272c-26.5 0-48 16.1-48 36 0 14 10.8 26.2 26.5 32.15L416 368l30.1-24h1.9c26.5 0 48-16.1 48-36s-21.5-36-48-36zM355 360.15l-7.75-16c-1.7-3.5-3.85-6-7.5-4.5l-7.4 2.8c-5.85 2.7-8.8 0-11.7-4.15l-13.2-30c-1.7-3.5-.85-6.65 2.9-8.2l10.25-4.1c3.7-1.5 3.1-4.7 1.5-8.15l-8.85-16.35c-1.65-3.5-5-4.25-8.8-2.75-7.5 3.1-13.6 7.9-17.5 15-5 8.75-2.5 20.85-1.5 26 1 5 4.35 14 8.75 23.15 4.4 9.15 8.3 16.4 11.75 20.5 3.5 4 11.7 15.2 22 17.7 8.35 2 17.5.35 24.9-2.75 3.7-1.5 3.7-4.75 2-8.2h.15zM188 272l-16 36h-8l16-36h8zm48 40h-88c-2.2 0-4 1.8-4 4v4h96v-4c0-2.2-1.8-4-4-4zm-88 12h88l-4 36c0 4.5-3.6 8-8 8h-64c-4.4 0-8-3.5-8-8l-4-36zm60 36h8l4-28h-8l-4 28zm-20 0h8v-28h-8v28zm-24-28l4 28h8l-4-28h-8zm40-60h-8l16 36h8l-16-36zM70 358c0 5.5-4.5 10-10 10s-10-4.5-10-10 4.5-10 10-10 10 4.5 10 10zm17.85-73.95l-.05-.05c-1.5-2.6-3.5-4.8-6-6.5-2.5-1.85-5.5-3.2-8.9-4.1-3.4-.9-7-1.35-10.8-1.35-8.3 0-16.4 1.8-24.1 6v16c6.35-5.8 13.1-9.35 20.15-9.35 2.15 0 4.2.25 6.1.7 1.9.5 3.6 1.2 5.1 2.2s2.65 2.25 3.5 3.7c.85 1.5 1.15 2.85 1.15 4.8 0 2.15-.5 4.5-1.65 6.25-1.15 1.85-2.5 3.5-4.3 5.2-1.65 1.6-3.5 3.3-5.5 5-2 1.75-3.9 3.5-5.6 5.5-1.75 1.8-3.15 3.8-4.3 6-1.15 2.1-1.75 4.5-1.75 7.1 0 1.7.15 3.5.5 5.15.35 1.75.25 2.65.65 3.75h16c-1.4-2.85-2-4.65-2-8 0-2.25.75-6.2 2-8 1.25-1.8 1.65-2 3.5-3.75 1.9-1.65 3.9-3.35 6-5 2.2-1.75 4.15-3.7 6-5.85 1.9-2.2 3.5-4.6 4.65-7.2 1.25-2.6 1.85-4.9 1.85-8.2 0-3.5-.75-7.3-2.2-10zM988 160l-12-12-44 44 44 44 12-12-32-32M804 160l32 32-32 32 12 12 44-44-44-44M716 148c-17.65 0-32 14.35-32 32 0 5.75 1.5 11.15 4.2 15.8L660 224l4 8 8 4 28.2-28.2c4.65 2.65 10 4.2 15.8 4.2 17.65 0 32-14.3 32-32s-14.35-32-32-32zm0 54c-12.15 0-22-9.85-22-22s9.85-22 22-22 22 9.85 22 22-9.85 22-22 22zM576 196l-32-32-12 12 44 44 44-44-12-12M400 184h96v16h-96v-16zm0-32h96v16h-96v-16zm0 64h96v16h-96v-16zM328 144h-16v40h-40v16h40v40h16v-40h40v-16h-40M182 208l-26-26-12 12 40 40 56-72-14-12M104 164l-12-12-28 28-28-28-12 12 28 28-28 28 12 12 28-28 28 28 12-12-28-28"/><path fill-rule="evenodd" d="M485 84.5l-22-4c-2-4-2-5.74-2-8 2-2 6-4 6-6 2-6 2-10 2-10 1.03-1.5 4-4 4-8s-4-8-4-10c0-16-8.15-22-20-22-11.34 0-20 6-20 22 0 2-4 6-4 10s2.86 6.63 4 8c0 0 0 4 2 10 0 2 4 4 6 6 0 2 0 4-2 8l-22 4c-8 2-12 16-12 28h96c0-12-4-26-12-28z" clip-rule="evenodd"/></g></svg>
